<svg class="Footer__StyledEpochLogo-sc-1nvg5ve-4 bpdEM" width="20" height="20" viewBox="0 0 26 26" fill="none" xmlns="http://www.w3.org/2000/svg"><path fill-rule="evenodd" clip-rule="evenodd" d="M20.8301 0.181519H4.8531V2.84895H6.75366C6.53836 3.07981 6.33772 3.3238 6.15326 3.57986C5.12647 5.00519 4.66427 6.71666 4.84543 8.42264C5.02397 10.104 5.81656 11.6776 7.09052 12.8831C5.95415 13.9584 5.19749 15.3298 4.92235 16.8149C4.6427 18.3244 4.87425 19.8772 5.58513 21.2596C5.94408 21.9576 6.41632 22.5949 6.9814 23.1511H4.8531V25.8185H20.8301V23.1511H18.6095C19.5615 22.214 20.237 21.0595 20.5632 19.7996C20.9487 18.3103 20.8272 16.7468 20.2153 15.3242C19.8213 14.4083 19.2366 13.5797 18.5004 12.8831C19.583 11.8587 20.3263 10.56 20.6304 9.14191C20.991 7.46061 20.7119 5.71536 19.8407 4.20354C19.5595 3.71571 19.2224 3.26192 18.8372 2.84895H20.8301V0.181519ZM11.3113 3.15847C11.342 3.14984 11.3727 3.14148 11.4035 3.1334L11.4035 15.1054H12.7954V15.1059C13.9406 15.1059 15.0638 14.8777 16.0925 14.4454C16.7319 14.9458 17.2318 15.5863 17.5442 16.3126C17.9357 17.2231 18.0135 18.2237 17.7668 19.1768C17.5201 20.13 16.961 20.9888 16.1664 21.6351C15.3718 22.2814 14.3808 22.6834 13.3298 22.7859C12.2788 22.8883 11.2193 22.6862 10.2973 22.2072C9.3752 21.7282 8.63581 20.996 8.18085 20.1112C7.72588 19.2265 7.57769 18.2327 7.75666 17.2666C7.93564 16.3006 8.43299 15.4097 9.18027 14.7166L9.17846 14.7149V11.0512L9.18027 11.0496C8.34388 10.2738 7.82337 9.25301 7.70743 8.16119C7.5915 7.06936 7.8873 5.97402 8.54445 5.0618C9.2016 4.14959 10.1794 3.47694 11.3113 3.15847ZM16.0389 11.3621C15.5161 11.76 14.9174 12.0548 14.2795 12.2343L14.2794 3.15841C14.439 3.20331 14.5967 3.2556 14.752 3.31524C15.8448 3.73509 16.7468 4.4934 17.3044 5.46096C17.862 6.42853 18.0406 7.54549 17.8098 8.62152C17.5791 9.69755 16.9532 10.6661 16.0389 11.3621Z" fill="url(#paint0_linear_1117_12517)"></path><path d="M18.5013 12.8832C17.729 13.6275 16.9644 14.0605 16.0923 14.4455C19.0914 16.9792 17.6868 20.18 16.746 21.0799L20.4882 20.0634C20.4882 20.0634 21.8762 16.0873 18.5013 12.8832Z" fill="url(#paint1_linear_1117_12517)"></path><defs><linearGradient id="paint0_linear_1117_12517" x1="22.4838" y1="-1.83469" x2="4.09757" y2="27.1094" gradientUnits="userSpaceOnUse"><stop offset="0.0989583" stop-color="#16F2DC"></stop><stop offset="0.5" stop-color="#1399FF"></stop><stop offset="0.895833" stop-color="#9847F5"></stop></linearGradient><linearGradient id="paint1_linear_1117_12517" x1="18.4752" y1="11.8018" x2="19.3897" y2="19.5657" gradientUnits="userSpaceOnUse"><stop></stop><stop offset="1" stop-opacity="0"></stop></linearGradient></defs></svg>