<svg xmlns="http://www.w3.org/2000/svg" xmlns:xlink="http://www.w3.org/1999/xlink" viewBox="0 0 525.39 645.95"><defs><style>.cls-1{fill:url(#linear-gradient);}.cls-2{fill:url(#linear-gradient-2);}.cls-3{fill:url(#linear-gradient-3);}.cls-4{fill:url(#linear-gradient-4);}.cls-5{fill:url(#linear-gradient-5);}.cls-6{fill:url(#linear-gradient-6);}.cls-7{fill:url(#linear-gradient-7);}.cls-8{fill:url(#linear-gradient-8);}.cls-9{fill:url(#linear-gradient-9);}.cls-10{fill:url(#linear-gradient-10);}.cls-11{fill:url(#linear-gradient-11);}.cls-12{fill:url(#linear-gradient-12);}.cls-13{fill:url(#linear-gradient-13);}.cls-14{fill:url(#linear-gradient-14);}.cls-15{fill:url(#linear-gradient-15);}.cls-16{fill:url(#linear-gradient-16);}.cls-17{fill:url(#linear-gradient-17);}.cls-18{fill:none;clip-rule:evenodd;}.cls-19{clip-path:url(#clip-path);}.cls-20{fill:url(#linear-gradient-18);}.cls-21{fill:url(#linear-gradient-19);}.cls-22{fill:url(#linear-gradient-20);}.cls-23{mask:url(#mask);}.cls-24{fill:#300c50;}.cls-24,.cls-27,.cls-30,.cls-31,.cls-32,.cls-34,.cls-35,.cls-36,.cls-37,.cls-39,.cls-47,.cls-49,.cls-51{fill-rule:evenodd;}.cls-25{mask:url(#mask-2);}.cls-26{mask:url(#mask-3);}.cls-27,.cls-37{fill:#f6dcfd;}.cls-28{mask:url(#mask-4);}.cls-29{mask:url(#mask-5);}.cls-30{fill:#01052d;}.cls-31{fill:url(#linear-gradient-21);}.cls-32{fill:url(#linear-gradient-22);}.cls-33{mask:url(#mask-6);}.cls-34{fill:url(#linear-gradient-23);}.cls-35{fill:#ffbcd8;}.cls-35,.cls-36,.cls-37{opacity:0.2;}.cls-36,.cls-47{fill:#fef7a2;}.cls-38{mask:url(#mask-7);}.cls-39{fill:#8a0028;}.cls-40{mask:url(#mask-8);}.cls-41{mask:url(#mask-9);}.cls-42{mask:url(#mask-10);}.cls-43{mask:url(#mask-11);}.cls-44{mask:url(#mask-12);}.cls-45{mask:url(#mask-13);}.cls-46{mask:url(#mask-14);}.cls-48{mask:url(#mask-15);}.cls-49{fill:url(#linear-gradient-24);}.cls-50{mask:url(#mask-16);}.cls-51{fill:url(#linear-gradient-25);}.cls-52{mask:url(#mask-17);}</style><linearGradient id="linear-gradient" x1="1.31" y1="635.56" x2="245.82" y2="499.14" gradientTransform="translate(289.91 -256.06)" gradientUnits="userSpaceOnUse"><stop offset="0" stop-color="#fff"/><stop offset="1"/></linearGradient><linearGradient id="linear-gradient-2" x1="123.43" y1="582.91" x2="-115.84" y2="436.27" gradientTransform="translate(161.76 -301.4)" xlink:href="#linear-gradient"/><linearGradient id="linear-gradient-3" x1="75.46" y1="542.08" x2="36.57" y2="625.45" gradientTransform="translate(189.92 -237.91)" xlink:href="#linear-gradient"/><linearGradient id="linear-gradient-4" x1="193.82" y1="1049.7" x2="-24.45" y2="671.66" gradientTransform="translate(200.46 -188.2)" xlink:href="#linear-gradient"/><linearGradient id="linear-gradient-5" x1="920.45" y1="141.43" x2="-39.83" y2="542.15" gradientTransform="translate(211.07 -237.8)" xlink:href="#linear-gradient"/><linearGradient id="linear-gradient-6" x1="-703.3" y1="16.84" x2="123.89" y2="648.12" gradientTransform="translate(156.42 -229.36)" xlink:href="#linear-gradient"/><linearGradient id="linear-gradient-7" x1="2.37" y1="1494.58" x2="135.46" y2="462.61" gradientTransform="translate(189.92 -206.22)" xlink:href="#linear-gradient"/><linearGradient id="linear-gradient-8" x1="-27.74" y1="712.12" x2="185.15" y2="343.36" gradientTransform="translate(275 -351.15)" xlink:href="#linear-gradient"/><linearGradient id="linear-gradient-9" x1="173.27" y1="1029.14" x2="-127.81" y2="728.07" gradientTransform="translate(173.27 -174.86)" xlink:href="#linear-gradient"/><linearGradient id="linear-gradient-10" x1="361.19" y1="211.6" x2="142.93" y2="589.68" gradientTransform="translate(294.13 -276.43)" xlink:href="#linear-gradient"/><linearGradient id="linear-gradient-11" x1="-435.72" y1="486.79" x2="0.81" y2="486.79" gradientTransform="translate(161.76 -301.43)" xlink:href="#linear-gradient"/><linearGradient id="linear-gradient-12" x1="134.83" y1="511.69" x2="-50.2" y2="832.2" gradientTransform="translate(185.82 -188.24)" xlink:href="#linear-gradient"/><linearGradient id="linear-gradient-13" x1="97.07" y1="520.49" x2="160.34" y2="653.21" gradientTransform="translate(269.09 -237.98)" xlink:href="#linear-gradient"/><linearGradient id="linear-gradient-14" x1="-43.89" y1="582.01" x2="47.12" y2="453.17" gradientTransform="translate(211.15 -319.77)" xlink:href="#linear-gradient"/><linearGradient id="linear-gradient-15" x1="69.66" y1="646.48" x2="-88.23" y2="631.94" gradientTransform="translate(185.4 -230.18)" xlink:href="#linear-gradient"/><linearGradient id="linear-gradient-16" x1="-2.84" y1="554.61" x2="79.1" y2="553.61" gradientTransform="translate(239.97 -237.8)" xlink:href="#linear-gradient"/><linearGradient id="linear-gradient-17" x1="75.89" y1="619.66" x2="34.08" y2="549.18" gradientTransform="translate(190.05 -274.22)" xlink:href="#linear-gradient"/><clipPath id="clip-path" transform="translate(2.9)"><path class="cls-18" d="M44.78,252.68,27.34,228.07a56.1,56.1,0,0,1,31.77-86.75l154.07-39.76.4-.1,12.3-26.74a56.11,56.11,0,0,1,91-15.87L427.93,172l.26,0,30-2.77a56.11,56.11,0,0,1,59.22,70.93l-42.7,153.14-.13.49,17.29,24.43a56.11,56.11,0,0,1-31.76,86.75L306.2,544.61l-12.44,27a56.1,56.1,0,0,1-91,15.81L91.51,474l-30.07,2.78a54.58,54.58,0,0,1-48.23-19.88,54.56,54.56,0,0,1-11-51Z"/></clipPath><linearGradient id="linear-gradient-18" x1="-6.46" y1="65.69" x2="10.4" y2="36.5" gradientUnits="userSpaceOnUse"><stop offset="0" stop-color="#0463ef"/><stop offset="1" stop-color="#c835f8"/></linearGradient><linearGradient id="linear-gradient-19" x1="-17.38" y1="197.41" x2="80.88" y2="27.22" xlink:href="#linear-gradient-18"/><linearGradient id="linear-gradient-20" x1="28.82" y1="787.35" x2="449.33" y2="59.03" xlink:href="#linear-gradient-18"/><mask id="mask" x="417.71" y="168.9" width="104.77" height="224.82" maskUnits="userSpaceOnUse"><g transform="translate(2.9)"><rect class="cls-1" x="414.81" y="168.9" width="104.77" height="224.82"/></g></mask><mask id="mask-2" x="19.65" y="101.67" width="196.73" height="151.22" maskUnits="userSpaceOnUse"><g transform="translate(2.9)"><rect class="cls-2" x="16.75" y="101.67" width="196.73" height="151.22"/></g></mask><mask id="mask-3" x="430.82" y="168.9" width="91.65" height="161.56" maskUnits="userSpaceOnUse"><g transform="translate(2.9)"><rect class="cls-10" x="427.93" y="168.9" width="91.65" height="161.56"/></g></mask><mask id="mask-4" x="19.66" y="117.91" width="133.16" height="134.9" maskUnits="userSpaceOnUse"><g transform="translate(2.9)"><rect class="cls-11" x="16.77" y="117.91" width="133.16" height="134.9"/></g></mask><mask id="mask-5" x="94.4" y="464.46" width="214.7" height="139.91" maskUnits="userSpaceOnUse"><g transform="translate(2.9)"><rect class="cls-12" x="91.51" y="464.46" width="214.7" height="139.91"/></g></mask><linearGradient id="linear-gradient-21" x1="33.13" y1="18.04" x2="312.01" y2="641.79" gradientUnits="userSpaceOnUse"><stop offset="0" stop-color="#fcd253"/><stop offset="1" stop-color="#fb5086"/></linearGradient><linearGradient id="linear-gradient-22" x1="53.51" y1="252.41" x2="611.27" y2="595.15" xlink:href="#linear-gradient-18"/><mask id="mask-6" x="353.03" y="308.9" width="124.42" height="141.01" maskUnits="userSpaceOnUse"><g transform="translate(2.9)"><rect class="cls-13" x="350.13" y="308.9" width="124.42" height="141.01"/></g></mask><linearGradient id="linear-gradient-23" x1="212.97" y1="380.06" x2="386.6" y2="106.6" gradientUnits="userSpaceOnUse"><stop offset="0" stop-color="#c835f8"/><stop offset="1" stop-color="#fb5086"/></linearGradient><mask id="mask-7" x="173.06" y="101.46" width="154.66" height="94.39" maskUnits="userSpaceOnUse"><g transform="translate(2.9)"><rect class="cls-14" x="170.17" y="101.46" width="154.66" height="94.39"/></g></mask><mask id="mask-8" x="93.11" y="337.69" width="103.99" height="136.42" maskUnits="userSpaceOnUse"><g transform="translate(2.9)"><rect class="cls-15" x="90.21" y="337.69" width="103.99" height="136.42"/></g></mask><mask id="mask-9" x="262.6" y="181.52" width="90.19" height="268.92" maskUnits="userSpaceOnUse"><g transform="translate(2.9)"><rect class="cls-16" x="259.71" y="181.52" width="90.19" height="268.92"/></g></mask><mask id="mask-10" x="107.53" y="181.17" width="220.36" height="156.17" maskUnits="userSpaceOnUse"><g transform="translate(2.9)"><rect class="cls-17" x="104.63" y="181.17" width="220.36" height="156.17"/></g></mask><mask id="mask-11" x="107.14" y="322.99" width="245.43" height="127.13" maskUnits="userSpaceOnUse"><g transform="translate(2.9)"><rect class="cls-3" x="104.24" y="322.99" width="245.43" height="127.13"/></g></mask><mask id="mask-12" x="139.88" y="520.6" width="169.39" height="83.91" maskUnits="userSpaceOnUse"><g transform="translate(2.9)"><rect class="cls-4" x="136.98" y="520.6" width="169.39" height="83.91"/></g></mask><mask id="mask-13" x="172.84" y="41.98" width="281.23" height="408.46" maskUnits="userSpaceOnUse"><g transform="translate(2.9)"><rect class="cls-5" x="169.94" y="41.98" width="281.23" height="408.46"/></g></mask><mask id="mask-14" x="3.08" y="181.16" width="324.81" height="295.52" maskUnits="userSpaceOnUse"><g transform="translate(2.9)"><rect class="cls-6" x="0.18" y="181.16" width="324.81" height="295.52"/></g></mask><mask id="mask-15" x="107.13" y="308.58" width="397.88" height="239.97" maskUnits="userSpaceOnUse"><g transform="translate(2.9)"><rect class="cls-7" x="104.24" y="308.58" width="397.88" height="239.97"/></g></mask><linearGradient id="linear-gradient-24" x1="398.72" y1="142.17" x2="451.94" y2="-118.99" xlink:href="#linear-gradient-18"/><mask id="mask-16" x="371.38" y="33.21" width="98.36" height="65.16" maskUnits="userSpaceOnUse"><g transform="translate(2.9)"><rect class="cls-8" x="368.49" y="33.21" width="98.36" height="65.16"/></g></mask><linearGradient id="linear-gradient-25" x1="174.84" y1="488.58" x2="5.95" y2="738.38" xlink:href="#linear-gradient-18"/><mask id="mask-17" x="55.41" y="572.91" width="98.34" height="73.04" maskUnits="userSpaceOnUse"><g transform="translate(2.9)"><rect class="cls-9" x="52.52" y="572.91" width="98.34" height="73.04"/></g></mask></defs><g id="Layer_2" data-name="Layer 2"><g id="Logo_Text" data-name="Logo Text"><g class="cls-19"><path class="cls-20" d="M-2.9,61.24q5.76-5.6,11.76-11c3.85-3.61,7.54-7.13,11.23-10.58h-23Z" transform="translate(2.9)"/><path class="cls-21" d="M8.86,50.2q-6,5.44-11.76,11V167.85C38,143.41,77.3,117.29,112.47,81.43a34.92,34.92,0,0,0,7.09-10.65,306.32,306.32,0,0,0,7.76-31.16H20.09C16.4,43.07,12.71,46.59,8.86,50.2Z" transform="translate(2.9)"/><path class="cls-22" d="M119.56,70.78a34.92,34.92,0,0,1-7.09,10.65C77.3,117.29,38,143.41-2.9,167.85V606.74H522.5V39.62H127.32A306.32,306.32,0,0,1,119.56,70.78Z" transform="translate(2.9)"/></g><g class="cls-23"><path class="cls-24" d="M458.17,169.17,427.93,172c9.08,9.25,15.67,15.23,20.19,28.16a55.38,55.38,0,0,1-2.26,41.73l-31.05,67.48,59.75,84.39L517.39,240.1a56.11,56.11,0,0,0-59.22-70.93Z" transform="translate(2.9)"/></g><g class="cls-25"><path class="cls-24" d="M20.35,176.56a54.6,54.6,0,0,0,6.9,51.72l17.43,24.61,2.54-9.14A55.2,55.2,0,0,1,96.1,202.91l74-6.86,43.42-94.38L59,141.53A54.58,54.58,0,0,0,20.35,176.56Z" transform="translate(2.9)"/></g><g class="cls-26"><path class="cls-27" d="M458.17,169.17,427.93,172c9.08,9.25,15.67,15.23,20.19,28.16a55,55,0,0,1,2.63,11.21c37.14,26.6,48.44,81.23,41.44,119.13h0l25.2-90.37a56.11,56.11,0,0,0-59.22-70.93Z" transform="translate(2.9)"/></g><g class="cls-28"><path class="cls-27" d="M20.37,176.3A54.63,54.63,0,0,0,27.25,228L44.8,252.82c3.47-12.49,5.36-21.19,14.3-31.57a53.49,53.49,0,0,1,8.39-7.88c4.47-45.47,46.12-82.56,82.44-95.46L59.07,141.28A54.62,54.62,0,0,0,20.37,176.3Z" transform="translate(2.9)"/></g><g class="cls-29"><path class="cls-30" d="M237.12,525.1,194.2,464.46,91.51,474,202.73,587.47a56.1,56.1,0,0,0,91-15.81l12.44-27-9.27,2.4A55.22,55.22,0,0,1,237.12,525.1Z" transform="translate(2.9)"/></g><path class="cls-31" d="M47.32,243.54,2.2,405.89a54.56,54.56,0,0,0,11,51,54.58,54.58,0,0,0,48.23,19.88l133.3-12.36L104.46,337.69,259.71,323l65.11-141.47L96.2,202.7A55.21,55.21,0,0,0,47.32,243.54Z" transform="translate(2.9)"/><path class="cls-32" d="M414.5,308.9,349.89,450.44,259.71,323l-155.25,14.7L237.12,525.1A55.22,55.22,0,0,0,296.93,547l163.16-42.1a56.11,56.11,0,0,0,31.76-86.75Z" transform="translate(2.9)"/><g class="cls-33"><polygon class="cls-24" points="353.03 449.91 477.45 393.73 417.39 308.9 353.03 449.91"/></g><path class="cls-34" d="M316.89,58.85a56.11,56.11,0,0,0-91,15.87L170.17,195.85l154.65-14.33L259.71,323l90.18,127.45,96-208.58a55.2,55.2,0,0,0-10.93-62.75Z" transform="translate(2.9)"/><path class="cls-35" d="M316.89,58.85c-11.57-11.78-26.36-17.6-42.32-16.79,87.92,84.21,129.49,205.38,114.1,324.1l57.19-124.3a55.2,55.2,0,0,0-10.93-62.75Z" transform="translate(2.9)"/><path class="cls-35" d="M267.22,42.89a54.61,54.61,0,0,0-41.34,31.83L193,146.29a382.25,382.25,0,0,1,184-26.29l-60-61.15A54.6,54.6,0,0,0,267.22,42.89Z" transform="translate(2.9)"/><path class="cls-36" d="M47.3,243.22,2.18,405.58c-4.42,15.91-2.07,31.62,6.61,45,29-118.25,113.13-214.83,223.63-260.86L96.18,202.38A55.21,55.21,0,0,0,47.3,243.22Z" transform="translate(2.9)"/><path class="cls-36" d="M25.12,323,2.18,405.58a54.62,54.62,0,0,0,11,51,54.58,54.58,0,0,0,48.23,19.88l78.45-7.28A382.32,382.32,0,0,1,25.12,323Z" transform="translate(2.9)"/><path class="cls-37" d="M157.78,413.27,236.84,525a55.21,55.21,0,0,0,59.8,21.91l163.17-42.11c16-4.12,28.42-14,35.7-28.25C378.62,510.55,252.9,486,157.78,413.27Z" transform="translate(2.9)"/><path class="cls-37" d="M446.05,353.72a382.32,382.32,0,0,1-69.21,172.45l83-21.41A56.1,56.1,0,0,0,491.57,418Z" transform="translate(2.9)"/><g class="cls-38"><polygon class="cls-39" points="173.06 195.85 327.72 181.52 216.48 101.46 173.06 195.85"/></g><g class="cls-40"><polygon class="cls-39" points="93.11 474.11 197.09 464.46 107.36 337.69 93.11 474.11"/></g><g class="cls-41"><polygon class="cls-39" points="262.6 322.99 352.79 450.44 327.72 181.52 262.6 322.99"/></g><g class="cls-42"><polygon class="cls-39" points="262.6 322.99 327.88 181.16 107.53 337.34 262.6 322.99"/></g><g class="cls-43"><polygon class="cls-24" points="107.14 337.37 352.56 450.12 262.6 322.99 107.14 337.37"/></g><g class="cls-44"><path class="cls-27" d="M271.89,547.6a54.45,54.45,0,0,1-11-3.33c-41.62,18.86-94.57,1.33-123.9-23.67l65.67,67a56.1,56.1,0,0,0,91-15.82l12.69-27.59C293.83,547.43,285.35,550.15,271.89,547.6Z" transform="translate(2.9)"/></g><g class="cls-45"><path class="cls-27" d="M316.89,58.85a56.11,56.11,0,0,0-91,15.87L169.94,196.34,229.21,76.25a52.44,52.44,0,0,1,85.06-14.83L432.32,181.67a51.55,51.55,0,0,1,10.21,58.65L349.22,443.14,259.71,323l90.18,127.45,96-208.58a55.2,55.2,0,0,0-10.93-62.75Z" transform="translate(2.9)"/></g><g class="cls-46"><path class="cls-47" d="M47.48,243.18,2.36,405.54a54.62,54.62,0,0,0,11,51,54.59,54.59,0,0,0,48.24,19.88L194.9,464.06,61.27,472.77a51,51,0,0,1-45.09-18.59A50.94,50.94,0,0,1,5.9,406.52L51,244.17A51.54,51.54,0,0,1,96.7,206L319,185.4,259.71,323,325,181.16,96.36,202.34A55.21,55.21,0,0,0,47.48,243.18Z" transform="translate(2.9)"/></g><g class="cls-48"><path class="cls-27" d="M414.27,308.58,488.63,420A52.44,52.44,0,0,1,459,501L295.79,543.14a51.55,51.55,0,0,1-55.9-20.48l-129-182.22L259.71,323,104.24,337.37,236.89,524.78a55.23,55.23,0,0,0,59.81,21.91l163.16-42.11a56.09,56.09,0,0,0,31.77-86.74Z" transform="translate(2.9)"/></g><path class="cls-49" d="M404.94,1.69a49.17,49.17,0,1,0,60.22,34.77A49.16,49.16,0,0,0,404.94,1.69Z" transform="translate(2.9)"/><g class="cls-50"><path class="cls-24" d="M464.17,33.21a49.18,49.18,0,0,1-94.21,4,49.17,49.17,0,1,0,95.2-.79C464.87,35.35,464.54,34.27,464.17,33.21Z" transform="translate(2.9)"/></g><path class="cls-51" d="M101.69,547.61a49.17,49.17,0,1,0,49.17,49.17A49.17,49.17,0,0,0,101.69,547.61Z" transform="translate(2.9)"/><g class="cls-52"><path class="cls-24" d="M95.63,618.69a49.17,49.17,0,0,1-43-25.3c-.07,1.12-.11,2.25-.11,3.39a49.17,49.17,0,1,0,92.16-23.87A49.18,49.18,0,0,1,95.63,618.69Z" transform="translate(2.9)"/></g></g></g></svg>