<?xml version="1.0" encoding="UTF-8"?><svg version="1.1" width="32px" height="32px" viewBox="0 0 50.0 50.0" xmlns="http://www.w3.org/2000/svg" xmlns:xlink="http://www.w3.org/1999/xlink"><defs><clipPath id="i0"><path d="M50,0 L50,50 L0,50 L0,0 L50,0 Z"></path></clipPath><clipPath id="i1"><path d="M30.6729336,0 C33.2993826,0 35.4368162,2.16437107 35.4374423,4.82392049 L35.4374423,26.9786603 C35.4374423,29.6388438 33.3000088,31.8027922 30.6733511,31.8027922 L30.2657339,31.8027922 L17.8591853,24.9070691 L17.2537078,24.9070691 L14.4185454,35 L4.49986016,35 L7.37467806,24.7654689 C3.19352321,24.0323175 0,20.3418334 0,15.9010791 C0,10.935981 3.98913856,6.89677973 8.89223294,6.89677973 L17.8591853,6.89677973 L30.2653164,0 Z M13.7633942,25.5776628 L10.4486085,25.5776628 L8.70543448,31.7835599 L12.0202202,31.7835599 L13.7633942,25.5776628 Z M31.0131364,3.25342528 L26.0215476,6.02836837 L26.0215476,25.7748465 L31.0131364,28.5491555 C31.7250577,28.3910704 32.2608249,27.7473174 32.2608249,26.9786603 L32.2608249,4.82455452 C32.2608249,4.0558974 31.7256838,3.41151038 31.0131364,3.25342528 Z M22.8455563,7.79351114 L18.6737935,10.1127972 L8.89223294,10.1127972 C5.74003498,10.1127972 3.17599128,12.7091548 3.17599128,15.9010791 C3.17599128,19.0930033 5.74003498,21.6904177 8.89223294,21.6904177 L18.6737935,21.6904177 L22.8455563,24.009281 L22.8455563,7.79351114 Z"></path></clipPath><clipPath id="i2"><path d="M2.27142756,0 C4.00917504,2.24658378 5.04940245,5.07224936 5.04940245,8.14096023 C5.04940245,11.2096711 4.00917504,14.035548 2.27142756,16.2819205 L0,13.9818667 C1.17359525,12.3363445 1.87341117,10.3220275 1.87341117,8.14096023 C1.87341117,5.96052703 1.17359525,3.94621 0,2.30005374 Z"></path></clipPath><clipPath id="i3"><path d="M2.25285207,0 C5.01120791,3.30710658 6.67861899,7.57646114 6.67861899,12.2342655 C6.67861899,16.8920698 5.01120791,21.1614243 2.25285207,24.4685309 L0,22.1872868 C2.1877335,19.4702519 3.5026277,16.0056942 3.5026277,12.2342655 C3.5026277,8.46347075 2.1877335,4.99827906 0,2.28124415 Z"></path></clipPath></defs><g clip-path="url(#i0)"><g transform="translate(0.0 7.0)"><g clip-path="url(#i1)"><polygon points="0,0 35.4374423,0 35.4374423,35 0,35 0,0" stroke="none" fill="#D5317B"></polygon></g><g transform="translate(39.260236347015194 8.960762528153879)"><g clip-path="url(#i2)"><polygon points="0,0 5.04940245,0 5.04940245,16.2819205 0,16.2819205 0,0" stroke="none" fill="#D5317B"></polygon></g></g><g transform="translate(43.32138101459742 4.867457293472075)"><g clip-path="url(#i3)"><polygon points="0,0 6.67861899,0 6.67861899,24.4685309 0,24.4685309 0,0" stroke="none" fill="#D5317B"></polygon></g></g></g></g></svg>