<svg width="15" height="15" viewBox="0 0 15 15" fill="none" xmlns="http://www.w3.org/2000/svg">
<path fill-rule="evenodd" clip-rule="evenodd" d="M8.16615 13.205C7.76691 12.9227 7.23309 12.9227 6.83385 13.205L6.29358 13.587C5.63599 14.0519 4.71641 13.7172 4.51154 12.9384L4.34322 12.2984C4.21884 11.8256 3.80991 11.4824 3.32262 11.4421L2.6632 11.3874C1.86058 11.3209 1.37129 10.4734 1.715 9.74508L1.99738 9.14669C2.20606 8.70449 2.11336 8.17878 1.76603 7.83462L1.29601 7.3689C0.723921 6.80204 0.893854 5.83831 1.62532 5.5013L2.22628 5.22442C2.67038 5.01982 2.93729 4.55751 2.89243 4.07061L2.83174 3.41173C2.75786 2.60975 3.50751 1.98072 4.28447 2.19274L4.92281 2.36693C5.39452 2.49565 5.89615 2.31307 6.17477 1.91125L6.5518 1.3675C7.0107 0.705666 7.9893 0.705667 8.4482 1.3675L8.82523 1.91125C9.10385 2.31307 9.60548 2.49565 10.0772 2.36693L10.7155 2.19274C11.4925 1.98072 12.2421 2.60975 12.1683 3.41173L12.1076 4.07061C12.0627 4.55751 12.3296 5.01982 12.7737 5.22442L13.3747 5.5013C14.1061 5.83831 14.2761 6.80204 13.704 7.3689L13.234 7.83463C12.8866 8.17878 12.7939 8.70449 13.0026 9.14669L13.285 9.74508C13.6287 10.4734 13.1394 11.3209 12.3368 11.3874L11.6774 11.4421C11.1901 11.4824 10.7812 11.8256 10.6568 12.2984L10.4885 12.9384C10.2836 13.7172 9.36401 14.0519 8.70642 13.587L8.16615 13.205Z" fill="#D5317C"/>
<path d="M5.82751 7.44928L7.07182 8.72566L9.51982 6.41797" stroke="white" stroke-width="0.828402" stroke-linecap="round" stroke-linejoin="round"/>
</svg>
