<svg width="35" height="35" viewBox="0 0 35 35" fill="none" xmlns="http://www.w3.org/2000/svg">
<rect width="35" height="35" rx="12" transform="matrix(-1 0 0 1 35 0)" fill="#D5317C"/>
<path fill-rule="evenodd" clip-rule="evenodd" d="M17.1997 10.5912C17.3126 10.2393 17.6446 10 18.0199 10C18.3952 10 18.7272 10.2393 18.8401 10.5912L20.3213 15.0693H25.0991C25.4885 15.0548 25.8399 15.2971 25.9586 15.6619C26.0774 16.0267 25.9343 16.4246 25.6088 16.635L21.7307 19.3986L23.2119 23.8845C23.3321 24.2352 23.2064 24.622 22.9015 24.8392C22.5967 25.0563 22.1836 25.0533 21.882 24.8317L17.996 22.0369L14.118 24.8083C13.8164 25.0298 13.4033 25.0328 13.0985 24.8157C12.7936 24.5985 12.6679 24.2117 12.7881 23.861L14.2693 19.3751L10.3912 16.6115C10.0657 16.4011 9.92263 16.0032 10.0414 15.6384C10.1601 15.2736 10.5115 15.0313 10.9009 15.0458H15.6787L17.1997 10.5912Z" fill="white"/>
</svg>
