<?xml version="1.0" encoding="UTF-8"?><svg version="1.1" width="25px" height="25px" viewBox="0 0 563.0 563.0" xmlns="http://www.w3.org/2000/svg" xmlns:xlink="http://www.w3.org/1999/xlink"><defs><clipPath id="i0"><path d="M388,0 C484.649831,-1.7754286e-14 563,78.3501688 563,175 L563,388 C563,484.649831 484.649831,563 388,563 L175,563 C78.3501688,563 1.18361906e-14,484.649831 0,388 L0,175 C-1.18361906e-14,78.3501688 78.3501688,1.7754286e-14 175,0 L388,0 Z"></path></clipPath><clipPath id="i1"><path d="M98.1,258.75 C107.4,258.75 115.35,262.05 121.95,268.65 C128.55,275.25 131.85,283.2 131.85,292.5 C131.85,301.8 128.55,309.75 121.95,316.35 C115.35,322.95 107.4,326.25 98.1,326.25 C88.8,326.25 80.85,322.95 74.25,316.35 C67.65,309.75 64.35,301.8 64.35,292.5 C64.35,283.2 67.575,275.25 74.025,268.65 C80.475,262.05 88.5,258.75 98.1,258.75 Z M104.4,0 C131.1,0 154.2,7.65 173.7,22.95 C193.2,38.25 202.95,59.4 202.95,86.4 C202.95,99 200.25,110.775 194.85,121.725 C189.45,132.675 182.85,142.05 175.05,149.85 C167.25,157.65 159.45,165.225 151.65,172.575 C143.85,179.925 137.25,187.8 131.85,196.2 C126.45,204.6 123.75,213.15 123.75,221.85 L72,221.85 C72,209.55 74.7,198.15 80.1,187.65 C85.5,177.15 92.1,168.075 99.9,160.425 C107.7,152.775 115.5,145.425 123.3,138.375 C131.1,131.325 137.7,123.675 143.1,115.425 C148.5,107.175 151.2,98.55 151.2,89.55 C151.2,76.95 146.85,67.275 138.15,60.525 C129.45,53.775 117.75,50.4 103.05,50.4 C88.95,50.4 76.8,54 66.6,61.2 C56.4,68.4 49.05,78.6 44.55,91.8 L0,66.6 C8.4,45.3 21.975,28.875 40.725,17.325 C59.475,5.775 80.7,0 104.4,0 Z"></path></clipPath></defs><g clip-path="url(#i0)"><path d="M175,0 L388,0 C484.649831,-1.7754286e-14 563,78.3501688 563,175 L563,388 C563,484.649831 484.649831,563 388,563 L175,563 C78.3501688,563 1.18361906e-14,484.649831 0,388 L0,175 C-1.18361906e-14,78.3501688 78.3501688,1.7754286e-14 175,0 Z" stroke="#FFFFFF" stroke-width="100" fill="none" stroke-miterlimit="5"></path></g><g transform="translate(179.9625000000001 118.14999999999964)"><g clip-path="url(#i1)"><polygon points="0,0 202.95,0 202.95,326.25 0,326.25 0,0" stroke="none" fill="#FFFFFF"></polygon></g></g></svg>