<?xml version="1.0" encoding="UTF-8"?><svg version="1.1" width="150px" height="50px" viewBox="0 0 2082.0 588.0" xmlns="http://www.w3.org/2000/svg" xmlns:xlink="http://www.w3.org/1999/xlink"><defs><clipPath id="i0"><path d="M233,0 L233,244 C233,280 221.666667,307.75 199,327.25 C176.333333,346.75 147.5,356.5 112.5,356.5 C58.1666667,356.5 20.6666667,335.166667 0,292.5 L49.5,263.5 C60.8333333,288.166667 82,300.5 113,300.5 C133,300.5 148.416667,295.583333 159.25,285.75 C170.083333,275.916667 175.5,262 175.5,244 L175.5,0 L233,0 Z"></path></clipPath><clipPath id="i1"><path d="M54,0 L54,148 C54,166.666667 59,181 69,191 C79,201 92.6666667,206 110,206 C129,206 144.333333,200.083333 156,188.25 C167.666667,176.416667 173.5,158.333333 173.5,134 L173.5,0 L227.5,0 L227.5,250 L173.5,250 L173.5,218 C157.166667,243.666667 131.333333,256.5 96,256.5 C67.3333333,256.5 44.1666667,247.333333 26.5,229 C8.83333333,210.666667 0,185.5 0,153.5 L0,0 L54,0 Z"></path></clipPath><clipPath id="i2"><path d="M131.5,0 C160.166667,0 183.333333,9.16666667 201,27.5 C218.666667,45.8333333 227.5,71 227.5,103 L227.5,256.5 L173.5,256.5 L173.5,108.5 C173.5,89.8333333 168.5,75.5 158.5,65.5 C148.5,55.5 134.833333,50.5 117.5,50.5 C98.5,50.5 83.1666667,56.4166667 71.5,68.25 C59.8333333,80.0833333 54,98.1666667 54,122.5 L54,256.5 L0,256.5 L0,6.5 L54,6.5 L54,38.5 C70.3333333,12.8333333 96.1666667,0 131.5,0 Z"></path></clipPath><clipPath id="i3"><path d="M126,0 C163.666667,0 192.666667,14.5 213,43.5 L213,6.5 L266,6.5 L266,245 C266,283 253.5,312.166667 228.5,332.5 C203.5,352.833333 173.166667,363 137.5,363 C79.8333333,363 40.3333333,342.833333 19,302.5 L65.5,275.5 C78.5,301.166667 102.833333,314 138.5,314 C161.833333,314 180.083333,307.916667 193.25,295.75 C206.416667,283.583333 213,266.666667 213,245 L213,214.5 C192.666667,243.5 163.666667,258 126,258 C90.6666667,258 60.8333333,245.416667 36.5,220.25 C12.1666667,195.083333 0,164.666667 0,129 C0,93.3333333 12.1666667,62.9166667 36.5,37.75 C60.8333333,12.5833333 90.6666667,0 126,0 Z M133.5,50.5 C110.833333,50.5 91.9166667,58 76.75,73 C61.5833333,88 54,106.666667 54,129 C54,151.333333 61.5,170 76.5,185 C91.8333333,200 110.833333,207.5 133.5,207.5 C156.166667,207.5 175.083333,200 190.25,185 C205.416667,170 213,151.333333 213,129 C213,106.666667 205.416667,88 190.25,73 C175.083333,58 156.166667,50.5 133.5,50.5 Z"></path></clipPath><clipPath id="i4"><path d="M54,0 L54,365 L0,365 L0,0 L54,0 Z"></path></clipPath><clipPath id="i5"><path d="M132,0 C168.666667,0 198.75,12.8333333 222.25,38.5 C245.75,64.1666667 257.5,95.3333333 257.5,132 C257.5,137.666667 256.833333,145.166667 255.5,154.5 L56.5,154.5 C60.5,173.5 69.6666667,188.083333 84,198.25 C98.3333333,208.416667 115.833333,213.5 136.5,213.5 C165.166667,213.5 186.666667,203.166667 201,182.5 L245.5,208.5 C220.833333,244.833333 184.333333,263 136,263 C95.3333333,263 62.5,250.583333 37.5,225.75 C12.5,200.916667 0,169.5 0,131.5 C0,94.1666667 12.3333333,62.9166667 37,37.75 C61.6666667,12.5833333 93.3333333,0 132,0 Z M131.5,49 C111.5,49 94.8333333,54.5 81.5,65.5 C68.1666667,76.5 59.6666667,91.5 56,110.5 L203,110.5 C199.333333,90.1666667 190.916667,74.8333333 177.75,64.5 C164.583333,54.1666667 149.166667,49 131.5,49 Z"></path></clipPath></defs><g transform="translate(31.0 52.0)"><g transform="translate(539.5 34.0)"><g transform="translate(0.0 15.0)"><g clip-path="url(#i0)"><polygon points="0,0 233,0 233,356.5 0,356.5 0,0" stroke="none" fill="var(--fontColor)"></polygon></g></g><g transform="translate(284.75 115.0)"><g clip-path="url(#i1)"><polygon points="0,0 227.5,0 227.5,256.5 0,256.5 0,0" stroke="none" fill="var(--fontColor)"></polygon></g></g><g transform="translate(569.0 108.5)"><g clip-path="url(#i2)"><polygon points="0,0 227.5,0 227.5,256.5 0,256.5 0,0" stroke="none" fill="var(--fontColor)"></polygon></g></g><g transform="translate(834.25 108.5)"><g clip-path="url(#i3)"><polygon points="0,0 266,0 266,363 0,363 0,0" stroke="none" fill="var(--fontColor)"></polygon></g></g><g transform="translate(1157.0 0.0)"><g clip-path="url(#i4)"><polygon points="0,0 54,0 54,365 0,365 0,0" stroke="none" fill="var(--fontColor)"></polygon></g></g><g transform="translate(1253.25 108.5)"><g clip-path="url(#i5)"><polygon points="0,0 257.5,0 257.5,263 0,263 0,0" stroke="none" fill="var(--fontColor)"></polygon></g></g></g><g transform="translate(220.6600822529923 309.98533557019107)"><polygon points="28.5280553,73.1123606 0,178.331711 98.124276,147.2432 157.339918,0 28.5280553,73.1123606 28.5280553,73.1123606" stroke="#D5317B" stroke-width="34.6728261" fill="none" stroke-miterlimit="10"></polygon></g><g transform="translate(0.0 306.62913698953196)"><polygon points="134.305954,91.0319607 152.996137,200.370863 47.6297317,155.674881 0,0 134.305954,91.0319607 134.305954,91.0319607" stroke="#D5317B" stroke-width="34.6728261" fill="none" stroke-miterlimit="10"></polygon></g><g transform="translate(109.6904777951114 0.0)"><polygon points="0,216.661614 78.0288712,357.41183 153.843475,216.661614 78.0288712,0 0,216.661614 0,216.661614" stroke="#D5317B" stroke-width="34.6728261" fill="none" stroke-miterlimit="10"></polygon></g></g></svg>