<?xml version="1.0" encoding="UTF-8"?><svg version="1.1" width="150px" height="50px" viewBox="0 0 682.0 681.0" xmlns="http://www.w3.org/2000/svg" xmlns:xlink="http://www.w3.org/1999/xlink"><defs><clipPath id="i0"><path d="M1170,0 L1170,2532 L0,2532 L0,0 L1170,0 Z"></path></clipPath><clipPath id="i1"><path d="M35.6395691,0 C42.2094897,0 48.1944173,1.58049415 53.594352,4.74148245 C58.9942867,7.90247075 63.0892372,12.1472265 65.8792035,17.4757496 L50.8943847,26.2813599 C49.544401,23.4816274 47.4969257,21.2689356 44.7519589,19.6432844 C42.0069921,18.0176333 38.9245294,17.2048077 35.5045707,17.2048077 C30.2846338,17.2048077 25.9646861,18.9433513 22.5447274,22.4204384 C19.1247688,25.8975256 17.4147894,30.3454877 17.4147894,35.7643248 C17.4147894,41.0928479 19.1247688,45.495653 22.5447274,48.9727402 C25.9646861,52.4498273 30.2846338,54.1883709 35.5045707,54.1883709 C39.0145283,54.1883709 42.1419905,53.3981238 44.8869573,51.8176296 C47.6319241,50.2371355 49.6793994,48.0470222 51.029383,45.2472897 L66.1492002,53.917429 C63.1792361,59.2459521 58.9942867,63.5132863 53.594352,66.7194316 C48.1944173,69.9255769 42.2094897,71.5286495 35.6395691,71.5286495 C25.4696921,71.5286495 16.9872946,68.0967194 10.1923768,61.2328591 C3.39745892,54.3689988 0,45.8794873 0,35.7643248 C0,25.6491622 3.39745892,17.1596508 10.1923768,10.2957905 C16.9872946,3.43193015 25.4696921,0 35.6395691,0 Z"></path></clipPath><clipPath id="i2"><path d="M37.5295463,0 C44.909457,0 51.0068833,2.48363366 55.8218251,7.45090099 C60.6367669,12.4181683 63.0442378,19.2820286 63.0442378,28.0424819 L63.0442378,69.6320565 L45.6294483,69.6320565 L45.6294483,30.2100167 C45.6294483,25.6943192 44.414463,22.2398105 41.9844924,19.8464908 C39.5545218,17.4531711 36.3145609,16.2565113 32.2646099,16.2565113 C27.7646643,16.2565113 24.1647078,17.6563775 21.4647405,20.45611 C18.7647731,23.2558425 17.4147894,27.4554412 17.4147894,33.0549062 L17.4147894,69.6320565 L0,69.6320565 L0,1.89659298 L17.4147894,1.89659298 L17.4147894,9.4829649 C21.6447383,3.1609883 28.3496572,0 37.5295463,0 Z"></path></clipPath><clipPath id="i3"><path d="M41.4444989,0.107065733 L41.4444989,16.9054607 C31.9046143,16.1829491 27.1346719,20.021292 27.1346719,28.4204895 L27.1346719,29.0978441 L41.4444989,29.0978441 L41.4444989,45.8962391 L27.1346719,45.8962391 L27.1346719,96.8333077 L9.71988248,96.8333077 L9.71988248,45.8962391 L0,45.8962391 L0,29.0978441 L9.71988248,29.0978441 L9.71988248,28.4204895 C9.71988248,18.8472107 12.3748504,11.5769376 17.6847862,6.60967023 C22.994722,1.64240291 30.9146262,-0.525131927 41.4444989,0.107065733 Z"></path></clipPath><clipPath id="i4"><path d="M29.1596474,0 L29.1596474,18.9659298 L44.414463,18.9659298 L44.414463,35.7643248 L29.1596474,35.7643248 L29.1596474,63.9422776 C29.1596474,66.2904403 29.7446404,68.0064054 30.9146262,69.0901728 C32.0846121,70.1739403 33.7945914,70.7835594 36.0445642,70.9190304 C38.294537,71.0545013 41.0845033,71.0319228 44.414463,70.8512949 L44.414463,86.7013934 C32.4446077,88.0561026 24.0072097,86.9271782 19.102269,83.3146202 C14.1973283,79.7020621 11.744858,73.2446146 11.744858,63.9422776 L11.744858,35.7643248 L0,35.7643248 L0,18.9659298 L11.744858,18.9659298 L11.744858,5.28336616 L29.1596474,0 Z"></path></clipPath><clipPath id="i5"><path d="M29.4296442,29.668133 L29.4296442,98.7583059 C29.4296442,108.692841 27.0221733,115.940535 22.2072315,120.50139 C17.3922897,125.062244 9.98987922,127.026573 0,126.394375 L0,109.59598 C4.13994995,109.866922 7.17741322,109.14441 9.11238983,107.428445 C11.0473664,105.71248 12.0148547,102.822434 12.0148547,98.7583059 L12.0148547,29.668133 L29.4296442,29.668133 Z M20.7897486,0 C23.6697138,0 26.1671836,1.08376742 28.2821581,3.25130225 C30.3971325,5.41883709 31.4546197,7.94762772 31.4546197,10.8376742 C31.4546197,13.7277206 30.3971325,16.2339328 28.2821581,18.3563106 C26.1671836,20.4786885 23.6697138,21.5398774 20.7897486,21.5398774 C17.8197846,21.5398774 15.2773153,20.4786885 13.1623409,18.3563106 C11.0473664,16.2339328 9.98987922,13.7277206 9.98987922,10.8376742 C9.98987922,7.94762772 11.0473664,5.41883709 13.1623409,3.25130225 C15.2773153,1.08376742 17.8197846,0 20.7897486,0 Z"></path></clipPath><clipPath id="i6"><path d="M17.4147894,0 L17.4147894,39.4220398 C17.4147894,43.9377374 18.6297748,47.392246 21.0597454,49.7855657 C23.489716,52.1788854 26.7296768,53.3755453 30.7796279,53.3755453 C35.2795735,53.3755453 38.8795299,51.975679 41.5794973,49.1759465 C44.2794646,46.3762141 45.6294483,42.1766153 45.6294483,36.5771503 L45.6294483,0 L63.0442378,0 L63.0442378,67.7354636 L45.6294483,67.7354636 L45.6294483,60.1490916 C41.3994995,66.4710682 34.6945805,69.6320565 25.5146915,69.6320565 C18.1347807,69.6320565 12.0373545,67.1484229 7.22241268,62.1811556 C2.40747089,57.2138882 0,50.3500279 0,41.5895746 L0,0 L17.4147894,0 Z"></path></clipPath><clipPath id="i7"><path d="M37.5295463,0 C44.909457,0 51.0068833,2.48363366 55.8218251,7.45090099 C60.6367669,12.4181683 63.0442378,19.2820286 63.0442378,28.0424819 L63.0442378,69.6320565 L45.6294483,69.6320565 L45.6294483,30.2100167 C45.6294483,25.6943192 44.414463,22.2398105 41.9844924,19.8464908 C39.5545218,17.4531711 36.3145609,16.2565113 32.2646099,16.2565113 C27.7646643,16.2565113 24.1647078,17.6563775 21.4647405,20.45611 C18.7647731,23.2558425 17.4147894,27.4554412 17.4147894,33.0549062 L17.4147894,69.6320565 L0,69.6320565 L0,1.89659298 L17.4147894,1.89659298 L17.4147894,9.4829649 C21.6447383,3.1609883 28.3496572,0 37.5295463,0 Z"></path></clipPath><clipPath id="i8"><path d="M33.6145936,0 C42.8844815,0 50.0843945,3.43193015 55.2143324,10.2957905 L55.2143324,1.89659298 L72.2241268,1.89659298 L72.2241268,66.3807543 C72.2241268,76.8571727 68.7816684,84.8499574 61.8967516,90.3591084 C55.0118349,95.8682594 46.7094353,98.622835 36.9895528,98.622835 C29.6996409,98.622835 23.2872184,97.2229687 17.7522854,94.4232362 C12.2173523,91.6235037 7.9649037,87.5142189 4.99493961,82.0953818 L19.8447601,73.5607134 C23.2647187,79.88269 29.1596474,83.0436783 37.5295463,83.0436783 C43.0194799,83.0436783 47.3394277,81.5986551 50.4893896,78.7086087 C53.6393515,75.8185622 55.2143324,71.7092774 55.2143324,66.3807543 L55.2143324,59.0653242 C50.0843945,65.9291845 42.8844815,69.3611147 33.6145936,69.3611147 C24.0747089,69.3611147 16.0873055,65.99692 9.6523833,59.2685306 C3.2174611,52.5401412 0,44.3441501 0,34.6805573 C0,25.1072785 3.23996083,16.9338659 9.71988248,10.1603195 C16.1998041,3.38677318 24.1647078,0 33.6145936,0 Z M36.3145609,16.2565113 C30.8246273,16.2565113 26.302182,17.9950548 22.747225,21.4721419 C19.192268,24.9492291 17.4147894,29.3520342 17.4147894,34.6805573 C17.4147894,40.0993944 19.1697682,44.569935 22.6797258,48.0921791 C26.2796823,51.5241093 30.8246273,53.2400744 36.3145609,53.2400744 C41.8044946,53.2400744 46.3269399,51.5015308 49.8818969,48.0244437 C53.4368539,44.5473565 55.2143324,40.0993944 55.2143324,34.6805573 C55.2143324,29.3520342 53.4368539,24.9492291 49.8818969,21.4721419 C46.3269399,17.9950548 41.8044946,16.2565113 36.3145609,16.2565113 Z"></path></clipPath><clipPath id="i9"><path d="M17.4147894,0 L17.4147894,98.8937768 L0,98.8937768 L0,0 L17.4147894,0 Z"></path></clipPath><clipPath id="i10"><path d="M35.6395691,0 C45.5394494,0 53.7068507,3.43193015 60.1417729,10.2957905 C66.5766951,17.1596508 69.7941562,25.6491622 69.7941562,35.7643248 C69.7941562,38.0221735 69.5691589,40.4154933 69.1191643,42.9442839 L18.2247797,42.9442839 C20.5647514,51.4337953 26.9096747,55.6785511 37.2595495,55.6785511 C43.919469,55.6785511 48.9594081,53.4207023 52.3793667,48.9050047 L66.419197,57.0332603 C59.7592775,66.6968531 49.9493961,71.5286495 36.9895528,71.5286495 C25.8296877,71.5286495 16.874796,68.1418763 10.1248776,61.36833 C3.3749592,54.5947836 0,46.0601152 0,35.7643248 C0,25.5588483 3.32995974,17.0467583 9.98987922,10.228055 C16.6497987,3.40935167 25.1996953,0 35.6395691,0 Z M35.6395691,15.7146275 C30.9596257,15.7146275 27.0896725,16.9112874 24.0297095,19.3046071 C20.9697465,21.6979268 18.944771,25.0621215 17.9547829,29.3971912 L52.3793667,29.3971912 C51.3893787,24.7911797 49.3419034,21.3592495 46.236941,19.1014007 C43.1319785,16.8435519 39.5995212,15.7146275 35.6395691,15.7146275 Z"></path></clipPath><clipPath id="i11"><path d="M6.37492292,0 C8.12490177,0 9.62488363,0.627180218 10.8748685,1.88154065 C12.1248534,3.13590109 12.7498458,4.64113361 12.7498458,6.39723823 C12.7498458,8.15334284 12.1248534,9.65857536 10.8748685,10.9129358 C9.62488363,12.1672962 8.12490177,12.7944765 6.37492292,12.7944765 C4.62494408,12.7944765 3.12496222,12.1672962 1.87497733,10.9129358 C0.624992444,9.65857536 0,8.15334284 0,6.39723823 C0,4.64113361 0.624992444,3.13590109 1.87497733,1.88154065 C3.12496222,0.627180218 4.62494408,0 6.37492292,0 Z"></path></clipPath><clipPath id="i12"><path d="M10.7998694,16.4822961 L10.7998694,54.1131092 L1.1249864,54.1131092 L1.1249864,16.4822961 L10.7998694,16.4822961 Z M5.92492837,0 C7.57490842,0 8.98739134,0.602093009 10.1623771,1.80627903 C11.3373629,3.01046505 11.9248558,4.41534874 11.9248558,6.02093009 C11.9248558,7.62651145 11.3373629,9.01885154 10.1623771,10.1979503 C8.98739134,11.3770492 7.57490842,11.9665986 5.92492837,11.9665986 C4.32494771,11.9665986 2.93746449,11.3770492 1.76247869,10.1979503 C0.587492897,9.01885154 0,7.62651145 0,6.02093009 C0,4.41534874 0.587492897,3.01046505 1.76247869,1.80627903 C2.93746449,0.602093009 4.32494771,0 5.92492837,0 Z"></path></clipPath><clipPath id="i13"><path d="M19.7997606,0 C25.3496935,0 30.0496367,1.91917147 33.8995901,5.7575144 C37.7495436,9.59585734 39.6745203,14.299709 39.6745203,19.8690693 C39.6745203,25.4384296 37.7495436,30.1548249 33.8995901,34.018255 C30.0496367,37.8315108 25.3496935,39.7381386 19.7997606,39.7381386 C14.2498277,39.7381386 9.56238439,37.8189672 5.73743063,33.9806242 C1.91247688,30.1422813 0,25.4384296 0,19.8690693 C0,14.299709 1.91247688,9.59585734 5.73743063,5.7575144 C9.56238439,1.91917147 14.2498277,0 19.7997606,0 Z M19.7997606,9.4829649 C16.8997957,9.4829649 14.4873248,10.461366 12.5623481,12.4181683 C10.6373714,14.3749706 9.67488303,16.8586043 9.67488303,19.8690693 C9.67488303,22.8795344 10.6248715,25.363168 12.5248486,27.3199703 C14.474825,29.2767726 16.8997957,30.2551737 19.7997606,30.2551737 C22.6997256,30.2551737 25.1246962,29.2767726 27.0746727,27.3199703 C29.0246491,25.363168 29.9996373,22.8795344 29.9996373,19.8690693 C29.9996373,16.8586043 29.0246491,14.3749706 27.0746727,12.4181683 C25.1246962,10.461366 22.6997256,9.4829649 19.7997606,9.4829649 Z"></path></clipPath></defs><g transform="translate(-262.0 -733.0)"><g clip-path="url(#i0)"><g transform="translate(262.0 778.0)"><g transform="translate(0.0 508.0)"><g transform="translate(0.0 29.261720259898155)"><g clip-path="url(#i1)"><polygon points="0,0 66.1492002,0 66.1492002,71.5286495 0,71.5286495 0,0" stroke="none" fill="var(--fontColor)"></polygon></g></g><g transform="translate(73.10595822914212 29.261720259898148)"><g clip-path="url(#i2)"><polygon points="0,0 63.0442378,0 63.0442378,69.6320565 0,69.6320565 0,0" stroke="none" fill="var(--fontColor)"></polygon></g></g><g transform="translate(143.1069539983436 2.0604691013355563)"><g clip-path="url(#i3)"><polygon points="0,-8.17124146e-14 41.4444989,-8.17124146e-14 41.4444989,96.8333077 0,96.8333077 0,-8.17124146e-14" stroke="none" fill="var(--fontColor)"></polygon></g></g><g transform="translate(186.1082762028655 12.192383441623932)"><g clip-path="url(#i4)"><polygon points="0,0 44.414463,0 44.414463,87.2555926 0,87.2555926 0,0" stroke="none" fill="var(--fontColor)"></polygon></g></g><g transform="translate(231.4045706603845 1.4901801984195089)"><g clip-path="url(#i5)"><polygon points="0,0 31.4546197,0 31.4546197,126.50982 0,126.50982 0,0" stroke="none" fill="var(--fontColor)"></polygon></g></g><g transform="translate(272.9209108188493 31.15831323970579)"><g clip-path="url(#i6)"><polygon points="0,0 63.0442378,0 63.0442378,69.6320565 0,69.6320565 0,0" stroke="none" fill="var(--fontColor)"></polygon></g></g><g transform="translate(349.1318315079283 29.261720259898148)"><g clip-path="url(#i7)"><polygon points="0,0 63.0442378,0 63.0442378,69.6320565 0,69.6320565 0,0" stroke="none" fill="var(--fontColor)"></polygon></g></g><g transform="translate(420.7528076910115 29.261720259898148)"><g clip-path="url(#i8)"><polygon points="0,0 72.2241268,0 72.2241268,98.622835 0,98.622835 0,0" stroke="none" fill="var(--fontColor)"></polygon></g></g><g transform="translate(506.00861902425896 0.0)"><g clip-path="url(#i9)"><polygon points="0,0 17.4147894,0 17.4147894,98.8937768 0,98.8937768 0,0" stroke="none" fill="var(--fontColor)"></polygon></g></g><g transform="translate(533.0801338256194 29.261720259898155)"><g clip-path="url(#i10)"><polygon points="0,0 69.7941562,0 69.7941562,71.5286495 0,71.5286495 0,0" stroke="none" fill="var(--fontColor)"></polygon></g></g><g transform="translate(607.9710704737589 87.0777014935756)"><g clip-path="url(#i11)"><polygon points="0,0 12.7498458,0 12.7498458,12.7944765 0,12.7944765 0,0" stroke="none" fill="#D5317B"></polygon></g></g><g transform="translate(626.160762834838 44.78066757880528)"><g clip-path="url(#i12)"><polygon points="0,0 11.9248558,0 11.9248558,54.1131092 0,54.1131092 0,0" stroke="none" fill="#D5317B"></polygon></g></g><g transform="translate(642.3254796785654 60.20930094629279)"><g clip-path="url(#i13)"><polygon points="0,0 39.6745203,0 39.6745203,39.7381386 0,39.7381386 0,0" stroke="none" fill="#D5317B"></polygon></g></g></g><g transform="translate(170.0 0.0)"><g transform="translate(188.9652377755836 263.9639942144552)"><polygon points="27.7474669,63.754593 0,155.506752 95.4393866,128.397308 153.034762,0 27.7474669,63.754593 27.7474669,63.754593" stroke="#D5317B" stroke-width="30" fill="none" stroke-miterlimit="10"></polygon></g><g transform="translate(0.0 264.8985443814911)"><polygon points="116.462435,78.6429956 132.669492,173.101456 41.3017769,134.488359 0,0 116.462435,78.6429956 116.462435,78.6429956" stroke="#D5317B" stroke-width="30" fill="none" stroke-miterlimit="10"></polygon></g><g transform="translate(98.04826153732569 0.0)"><polygon points="0,188.232482 62.8224406,308.769984 132.870221,187.175122 64.0168979,0 0,188.232482 0,188.232482" stroke="#D5317B" stroke-width="30" fill="none" stroke-miterlimit="10"></polygon></g></g></g></g></g></svg>