<?xml version="1.0" encoding="UTF-8"?><svg version="1.1" width="30px" height="30px" viewBox="0 0 100.0 100.0" xmlns="http://www.w3.org/2000/svg" xmlns:xlink="http://www.w3.org/1999/xlink"><defs><clipPath id="i0"><path d="M78,0 C90.1502645,-2.23196738e-15 100,9.8497355 100,22 L100,78 C100,90.1502645 90.1502645,100 78,100 L22,100 C9.8497355,100 -2.06473543e-15,90.1502645 0,78 L0,22 C-1.48797825e-15,9.8497355 9.8497355,-1.3207463e-15 22,0 L78,0 Z"></path></clipPath><clipPath id="i1"><path d="M36,0 C37.1045695,-2.02906125e-16 38,0.8954305 38,2 C38,3.1045695 37.1045695,4 36,4 L2,4 C0.8954305,4 1.3527075e-16,3.1045695 0,2 C-1.3527075e-16,0.8954305 0.8954305,2.02906125e-16 2,0 L36,0 Z"></path></clipPath></defs><g clip-path="url(#i0)"><polygon points="0,0 100,0 100,100 0,100 0,0" stroke="none" fill="#28282B"></polygon></g><g transform="translate(31.0 48.0)"><g clip-path="url(#i1)"><polygon points="0,0 38,0 38,4 0,4 0,0" stroke="none" fill="#FFFFFF"></polygon></g></g><g transform="translate(52.0 31.0) rotate(90.00000000000001)"><g clip-path="url(#i1)"><polygon points="0,0 38,0 38,4 0,4 0,0" stroke="none" fill="#FFFFFF"></polygon></g></g></svg>