<?xml version="1.0" encoding="UTF-8"?><svg version="1.1" width="20px" height="20px" viewBox="0 0 85.0 85.0" xmlns="http://www.w3.org/2000/svg" xmlns:xlink="http://www.w3.org/1999/xlink"><defs><clipPath id="i0"><path d="M46.0168458,5.75967432 C46.6241513,6.18077124 47.150894,6.70751398 47.5719909,7.31481947 L48.6150162,8.81906931 C51.0296754,12.3014881 55.3771189,13.8838281 59.4653108,12.7682536 L61.2312276,12.2863751 C64.5196818,11.3890308 67.912942,13.3274083 68.8102863,16.6158626 C69.0048334,17.32881 69.069758,18.070902 69.0019685,18.8068009 L68.8340591,20.6295668 C68.4453398,24.8493674 70.7585661,28.855993 74.6073803,30.6292524 L76.2698966,31.3952215 C79.3658005,32.8215936 80.7192235,36.4876225 79.2928514,39.5835264 C78.9836094,40.2547282 78.556337,40.8649365 78.0313806,41.3850935 L76.7311031,42.6734831 C73.7208913,45.6561739 72.9175162,50.2123404 74.7260497,54.044706 L75.5072556,55.7001173 C76.9620013,58.7827903 75.6423055,62.4610949 72.5596325,63.9158406 C71.8912991,64.2312341 71.1717552,64.4240354 70.4352647,64.4850632 L68.6110335,64.6362247 C64.3878408,64.9861716 60.8437724,67.959998 59.7657923,72.0582633 L59.3001529,73.8285314 C58.4330488,77.1250885 55.0577345,79.0945492 51.7611774,78.227445 C51.0464733,78.0394541 50.3713404,77.7246344 49.767928,77.2979776 L48.2733212,76.2411807 C44.8132264,73.7946396 40.1867736,73.7946396 36.7266788,76.2411807 L35.232072,77.2979776 C32.4488456,79.265923 28.5972599,78.6050072 26.6293145,75.8217808 C26.2026577,75.2183685 25.887838,74.5432356 25.6998471,73.8285314 L25.2342077,72.0582633 C24.1562276,67.959998 20.6121592,64.9861716 16.3889665,64.6362247 L14.5647353,64.4850632 C11.1676893,64.2035735 8.64203196,61.2215311 8.92352173,57.8244851 C8.98454962,57.0879946 9.17735084,56.3684507 9.49274437,55.7001173 L10.2739503,54.044706 C12.0824838,50.2123404 11.2791087,45.6561739 8.26889691,42.6734831 L6.96861945,41.3850935 C4.54726938,38.9858808 4.52932354,35.0780425 6.92853628,32.6566924 C7.44869328,32.131736 8.05890154,31.7044636 8.73010341,31.3952215 L10.3926197,30.6292524 C14.2414339,28.855993 16.5546602,24.8493674 16.1659409,20.6295668 L15.9980315,18.8068009 C15.6853539,15.4124835 18.1835166,12.4073703 21.577834,12.0946928 C22.3137329,12.0269033 23.055825,12.0918279 23.7687724,12.2863751 L25.5346892,12.7682536 C29.6228811,13.8838281 33.9703246,12.3014881 36.3849838,8.81906931 L37.4280091,7.31481947 C39.3703094,4.51363624 43.2156625,3.81737403 46.0168458,5.75967432 Z"></path></clipPath></defs><g clip-path="url(#i0)"><polygon points="5.14080132,4.65913449 79.8606893,4.65913449 79.8606893,78.4319907 5.14080132,78.4319907 5.14080132,4.65913449" stroke="none" fill="#D5317B"></polygon></g><g transform="translate(30.0 35.0)"><path d="M0,6.7035 L8.425,15 L25,0" stroke="#FFFFFF" stroke-width="5.60897436" fill="none" stroke-linecap="round" stroke-linejoin="round"></path></g></svg>