<?xml version="1.0" encoding="UTF-8"?>
<svg width="17px" height="17px" viewBox="0 0 17 17" version="1.1" xmlns="http://www.w3.org/2000/svg" xmlns:xlink="http://www.w3.org/1999/xlink">
    <title>Group 5 Copy 4</title>
    <g id="Page-1" stroke="none" stroke-width="1" fill="none" fill-rule="evenodd">
        <g id="Artboard" transform="translate(-380.000000, -386.000000)">
            <g id="Group-5-Copy-4" transform="translate(380.000000, 386.000000)">
                <path d="M7.34533577,15.2482361 L7.04641439,15.4595955 C6.48976912,15.8531846 5.71945198,15.7210014 5.32586291,15.1643562 C5.24053153,15.0436737 5.17756761,14.9086471 5.13996941,14.7657063 L5.04684153,14.4116527 C4.83124552,13.5919996 4.12243184,12.9972343 3.2777933,12.9272449 L2.91294706,12.8970126 C2.23353786,12.8407147 1.72840639,12.2443062 1.78470435,11.564897 C1.79690992,11.4175989 1.83547017,11.2736901 1.89854887,11.1400235 L2.05479006,10.8089412 C2.41649676,10.0424681 2.25582174,9.13123478 1.65377938,8.53469662 L1.39372389,8.2770187 C0.909453876,7.79717615 0.905864707,7.0156085 1.38570726,6.53133848 C1.48973866,6.4263472 1.61178031,6.34089271 1.74602068,6.27904431 L2.07852395,6.12585048 C2.84828678,5.77119859 3.31093205,4.96987348 3.23318818,4.12591337 L3.19960629,3.76136018 C3.13707078,3.0824967 3.63670332,2.48147407 4.31556681,2.41893856 C4.46274658,2.40538066 4.611165,2.41836559 4.75375447,2.45727501 L5.10693785,2.55365071 C5.92457623,2.77676561 6.79406492,2.46029761 7.27699676,1.76381386 L7.48560182,1.46296389 C7.87406187,0.902727247 8.64313251,0.763474807 9.20336915,1.15193486 C9.32483025,1.23615425 9.4301788,1.3415028 9.51439818,1.46296389 L9.72300324,1.76381386 C10.2059351,2.46029761 11.0754238,2.77676561 11.8930622,2.55365071 L12.2462455,2.45727501 C12.9039364,2.27780615 13.5825884,2.66548167 13.7620573,3.32317251 C13.8009667,3.46576199 13.8139516,3.6141804 13.8003937,3.76136018 L13.7668118,4.12591337 C13.689068,4.96987348 14.1517132,5.77119859 14.9214761,6.12585048 L15.2539793,6.27904431 C15.8731601,6.56431871 16.1438447,7.2975245 15.8585703,7.91670528 C15.7967219,8.05094565 15.7112674,8.1729873 15.6062761,8.2770187 L15.3462206,8.53469662 C14.7441783,9.13123478 14.5835032,10.0424681 14.9452099,10.8089412 L15.1014511,11.1400235 C15.3924003,11.7565581 15.1284611,12.492219 14.5119265,12.7831681 C14.3782598,12.8462468 14.234351,12.8848071 14.0870529,12.8970126 L13.7222067,12.9272449 C12.8775682,12.9972343 12.1687545,13.5919996 11.9531585,14.4116527 L11.8600306,14.7657063 C11.6866098,15.4250177 11.0115469,15.8189098 10.3522355,15.645489 C10.2092947,15.6078908 10.0742681,15.5449269 9.95358561,15.4595955 L9.65466423,15.2482361 C8.96264527,14.7589279 8.03735473,14.7589279 7.34533577,15.2482361 Z" id="Star" fill="#697BF2"></path>
                <polyline id="Stroke-204" stroke="#FFFFFF" stroke-width="1.12179487" stroke-linecap="round" stroke-linejoin="round" points="6 8.3407 7.685 10 11 7"></polyline>
            </g>
        </g>
    </g>
</svg>