<svg width="17" height="17" viewBox="0 0 17 17" xmlns="http://www.w3.org/2000/svg">
    <defs>
        <clipPath id="zxooanhoaa">
            <path d="M826 0v863H0V0h826z"/>
        </clipPath>
        <clipPath id="t2n955gflb">
            <path d="M9.203 1.152c.122.084.227.19.311.311l.209.3a2 2 0 0 0 2.17.79l.353-.096A1.234 1.234 0 0 1 13.8 3.761l-.033.365a2 2 0 0 0 1.154 2l.333.153a1.234 1.234 0 0 1 .352 1.998l-.26.258a2 2 0 0 0-.4 2.274l.155.331a1.234 1.234 0 0 1-1.014 1.757l-.365.03a2 2 0 0 0-1.769 1.485l-.093.354a1.234 1.234 0 0 1-1.906.694l-.3-.212a2 2 0 0 0-2.309 0l-.299.212a1.234 1.234 0 0 1-1.906-.694l-.093-.354a2 2 0 0 0-1.77-1.485l-.364-.03a1.234 1.234 0 0 1-1.014-1.757l.156-.331a2 2 0 0 0-.401-2.274l-.26-.258a1.234 1.234 0 0 1 .352-1.998l.333-.153a2 2 0 0 0 1.154-2L3.2 3.76a1.234 1.234 0 0 1 1.554-1.304l.353.097a2 2 0 0 0 2.17-.79l.209-.301c.388-.56 1.157-.7 1.717-.311z"/>
        </clipPath>
    </defs>
    <g clip-path="url(#zxooanhoaa)" transform="translate(-180 -386)">
        <g clip-path="url(#t2n955gflb)" transform="translate(180 386)">
            <path fill="#31D581" d="M1.028.932h14.944v14.754H1.028V.932z"/>
        </g>
        <path d="m186 394.34 1.685 1.66 3.315-3" stroke="#FFF" stroke-width="1.122" fill="none" stroke-linecap="round" stroke-linejoin="round"/>
    </g>
</svg>
