<svg width="22" height="22" viewBox="0 0 22 22" fill="none" xmlns="http://www.w3.org/2000/svg">
<path fill-rule="evenodd" clip-rule="evenodd" d="M10.3927 21.3051C15.4184 21.3051 19.635 17.8577 20.7855 13.2092H20.4107H17.2045C16.1662 15.9482 13.5081 17.8963 10.3927 17.8963C7.27743 17.8963 4.61928 15.9482 3.58099 13.2092H0.374756H0C1.15051 17.8577 5.36712 21.3051 10.3927 21.3051ZM10.3927 0C15.4184 0 19.635 3.44747 20.7855 8.09595H20.4107H17.2045C16.1662 5.35694 13.5081 3.40882 10.3927 3.40882C7.27743 3.40882 4.61928 5.35694 3.58099 8.09595H0.374756H0C1.15051 3.44747 5.36712 0 10.3927 0ZM8.50902 8.09595C8.13071 8.09595 7.82403 8.40119 7.82403 8.77772V12.5274C7.82403 12.9039 8.13071 13.2092 8.50902 13.2092H12.2765C12.6548 13.2092 12.9615 12.9039 12.9615 12.5274V8.77772C12.9615 8.40119 12.6548 8.09595 12.2765 8.09595H8.50902Z" fill="#C6FF00"/>
</svg>
