<svg width="12" height="14" viewBox="0 0 12 14" xmlns="http://www.w3.org/2000/svg">
    <defs>
        <linearGradient x1="10.205%" y1="-51.52%" x2="96.056%" y2="151.917%" id="a">
            <stop stop-color="#FCD253" offset="0%"/>
            <stop stop-color="#FB5086" offset="100%"/>
        </linearGradient>
        <linearGradient x1="-12.811%" y1="18.814%" x2="127.433%" y2="79.374%" id="b">
            <stop stop-color="#0463EF" offset="0%"/>
            <stop stop-color="#C835F8" offset="100%"/>
        </linearGradient>
        <linearGradient x1="35.859%" y1="82.764%" x2="60.985%" y2="15.803%" id="c">
            <stop stop-color="#C835F8" offset="0%"/>
            <stop stop-color="#FB5086" offset="100%"/>
        </linearGradient>
    </defs>
    <g fill="none" fill-rule="evenodd">
        <path d="m10.592 3.21-.694.07c.208.23.36.378.463.699.109.339.09.71-.052 1.034l-.713 1.673 1.373 2.092.984-3.81c.113-.44.02-.913-.253-1.264a1.245 1.245 0 0 0-1.108-.493zM.534 3.394c-.152.428-.092.911.159 1.282l.4.61.059-.227c.138-.56.587-.965 1.123-1.012l1.7-.17.997-2.34-3.55.988a1.294 1.294 0 0 0-.888.869z" fill="#300C50"/>
        <path d="m10.592 3.21-.694.07c.208.23.36.378.463.699.03.09.05.183.06.278.854.659 1.114 2.013.953 2.953l.579-2.24c.113-.441.02-.914-.253-1.265a1.245 1.245 0 0 0-1.108-.494zM.535 3.387c-.152.429-.093.911.158 1.282l.403.615c.08-.31.123-.525.329-.782.057-.073.122-.138.192-.196C1.72 3.18 2.677 2.26 3.511 1.94l-2.087.58a1.295 1.295 0 0 0-.89.867z" fill="#F6DCFD"/>
        <path d="m5.514 12.034-.986-1.503-2.359.236 2.555 2.813c.297.326.723.475 1.14.396.418-.078.773-.373.95-.788l.286-.67-.213.06c-.518.15-1.068-.067-1.373-.544z" fill="#01052D"/>
        <path d="M1.154 5.054.117 9.08c-.12.44-.025.916.253 1.264.268.356.685.542 1.108.493l3.062-.307-2.073-3.14 3.566-.365L7.53 3.517l-5.252.525c-.535.047-.985.452-1.123 1.012z" fill="url(#a)"/>
        <path d="m9.589 6.674-1.484 3.51-2.072-3.16-3.566.364 3.047 4.646c.306.476.856.694 1.374.543l3.748-1.044c.41-.114.743-.439.888-.868.146-.43.087-.91-.158-1.282L9.589 6.674z" fill="url(#b)"/>
        <path fill="#300C50" d="m8.11 10.17 2.859-1.393-1.38-2.103z"/>
        <path d="M7.347.476A1.231 1.231 0 0 0 6.206.08a1.308 1.308 0 0 0-.95.79l-1.28 3.002 3.553-.355-1.496 3.507 2.072 3.16 2.205-5.171a1.45 1.45 0 0 0-.25-1.556L7.346.476z" fill="url(#c)"/>
        <path d="M7.347.476a1.202 1.202 0 0 0-.973-.417c2.02 2.088 2.975 5.092 2.622 8.035l1.313-3.082a1.45 1.45 0 0 0-.25-1.555L7.346.476z" fill="#FFBCD8" opacity=".2"/>
        <path d="M6.206.08c-.42.072-.778.37-.95.79L4.5 2.642a8.197 8.197 0 0 1 4.227-.651L7.349.476A1.198 1.198 0 0 0 6.206.08z" fill="#FFBCD8" opacity=".2"/>
        <path d="M1.153 5.046.117 9.071c-.102.394-.048.784.152 1.116C.935 7.255 2.868 4.86 5.406 3.72l-3.13.314c-.535.047-.985.452-1.123 1.012z" fill="#FEF7A2" opacity=".2"/>
        <path d="M.644 7.024.117 9.07c-.12.44-.025.916.253 1.264.268.357.685.542 1.108.493l1.802-.18A9.406 9.406 0 0 1 .644 7.024z" fill="#FEF7A2" opacity=".2"/>
        <path d="m3.691 9.262 1.817 2.77c.305.476.855.693 1.373.543l3.749-1.044c.367-.102.653-.347.82-.7-2.685.842-5.573.234-7.759-1.57z" fill="#F6DCFD" opacity=".2"/>
        <path d="M10.314 7.785a9.912 9.912 0 0 1-1.59 4.275l1.907-.53c.41-.115.742-.44.888-.87.145-.429.086-.908-.16-1.281l-1.045-1.594z" fill="#F6DCFD" opacity=".2"/>
        <path fill="#8A0028" d="m3.976 3.872 3.553-.355-2.556-1.985zM2.14 10.77l2.388-.24-2.061-3.142zM6.033 7.024l2.072 3.16-.576-6.667z"/>
        <path fill="#8A0028" d="m6.033 7.024 1.5-3.516L2.47 7.379z"/>
        <path fill="#300C50" d="m2.462 7.38 5.637 2.795-2.066-3.151z"/>
        <path d="M6.313 12.592a1.184 1.184 0 0 1-.253-.083c-.956.468-2.172.033-2.846-.587l1.508 1.661c.297.327.724.475 1.141.396.418-.078.773-.373.95-.788l.292-.684c-.288.08-.483.148-.792.085zM7.347.476A1.231 1.231 0 0 0 6.206.08a1.308 1.308 0 0 0-.95.79L3.971 3.883 5.332.907C5.498.52 5.83.243 6.22.17a1.15 1.15 0 0 1 1.066.37l2.712 2.98c.356.382.45.965.235 1.454l-2.144 5.028-2.056-2.978 2.072 3.16 2.205-5.171a1.45 1.45 0 0 0-.25-1.556L7.346.476z" fill="#F6DCFD"/>
        <path d="M1.158 5.045.12 9.07c-.12.44-.025.916.253 1.264.268.357.685.542 1.108.493l3.062-.306-3.07.216a1.132 1.132 0 0 1-1.035-.461 1.34 1.34 0 0 1-.237-1.182L1.238 5.07c.13-.524.55-.903 1.05-.946l5.107-.511-1.362 3.41 1.5-3.515-5.253.525c-.535.047-.984.452-1.122 1.012z" fill="#FEF7A2"/>
        <path d="m9.584 6.666 1.708 2.762c.228.35.283.796.147 1.197-.136.4-.445.704-.828.811l-3.75 1.045c-.484.142-.998-.062-1.283-.508L2.614 7.456l3.42-.432-3.572.356 3.047 4.646c.305.476.855.694 1.374.543l3.748-1.044a1.33 1.33 0 0 0 .888-.868c.146-.43.087-.909-.158-1.282L9.584 6.666z" fill="#F6DCFD"/>
    </g>
</svg>
