<svg width="25" height="15" viewBox="0 0 25 15" xmlns="http://www.w3.org/2000/svg">
    <path d="M2.274 15c1.256 0 2.274-.995 2.274-2.222a2.155 2.155 0 0 0-.114-.667l3.601-2.933a2.258 2.258 0 0 0 2.779-.511l2.842.927c.12 1.164 1.142 2.039 2.34 2 1.196-.04 2.157-.98 2.196-2.15a2.143 2.143 0 0 0-.263-1.013l3.737-4.26c.9.468 2.01.292 2.711-.43a2.177 2.177 0 0 0 .298-2.669 2.29 2.29 0 0 0-2.553-.99c-.982.269-1.66 1.145-1.656 2.141.003.215.038.43.105.634l-3.937 4.49a2.23 2.23 0 0 0-2.434.659l-2.843-.926a2.22 2.22 0 0 0-1.42-1.934 2.308 2.308 0 0 0-2.394.438 2.183 2.183 0 0 0-.607 2.305l-3.598 2.938a2.287 2.287 0 0 0-1.064-.271C1.018 10.556 0 11.55 0 12.778 0 14.005 1.018 15 2.274 15z" fill="currentColor" fill-rule="nonzero"/>
</svg>
