<svg width="13" height="13" viewBox="0 0 13 13" fill="none" xmlns="http://www.w3.org/2000/svg">
<path fill-rule="evenodd" clip-rule="evenodd" d="M1.1759 0.554285C1.37898 0.338879 1.72151 0.338879 1.9246 0.554285L11.8241 11.0543C12.011 11.2525 12.011 11.562 11.8241 11.7602V11.7602C11.621 11.9756 11.2785 11.9756 11.0754 11.7602L1.1759 1.26017C0.989036 1.06197 0.989036 0.752481 1.1759 0.554285V0.554285Z" fill="white"/>
<path fill-rule="evenodd" clip-rule="evenodd" d="M1.1759 11.7602C0.989036 11.562 0.989036 11.2525 1.1759 11.0543L11.0754 0.554286C11.2785 0.33888 11.621 0.338879 11.8241 0.554285V0.554285C12.011 0.752481 12.011 1.06197 11.8241 1.26017L1.9246 11.7602C1.72151 11.9756 1.37898 11.9756 1.1759 11.7602V11.7602Z" fill="white"/>
</svg>
