<svg width="12" height="14" viewBox="0 0 12 14" fill="none" xmlns="http://www.w3.org/2000/svg">
<path fill-rule="evenodd" clip-rule="evenodd" d="M6.6 11.6667C8.25603 11.6647 9.59802 10.36 9.6 8.75001V3.64176C9.60189 3.02242 9.34864 2.42812 8.8968 1.99152L7.5516 0.683686C7.10253 0.244395 6.49124 -0.00181241 5.8542 2.02038e-05H3C1.34397 0.00194877 0.00198367 1.30665 0 2.91668V8.75001C0.00198367 10.36 1.34397 11.6647 3 11.6667H6.6ZM1.2 8.75001V2.91668C1.2 1.95019 2.00589 1.16669 3 1.16669C3 1.16669 5.9514 1.17485 6 1.18069V2.33335C6 2.97768 6.53726 3.50002 7.2 3.50002H8.3856C8.3916 3.54727 8.4 8.75001 8.4 8.75001C8.4 9.71651 7.59411 10.5 6.6 10.5H3C2.00589 10.5 1.2 9.71651 1.2 8.75001ZM12 11.0833V4.66668C12 4.34451 11.7314 4.08335 11.4 4.08335C11.0686 4.08335 10.8 4.34451 10.8 4.66668V11.0833C10.8 12.0498 9.99411 12.8333 9 12.8333H3.6C3.26863 12.8333 3 13.0945 3 13.4167C3 13.7388 3.26863 14 3.6 14H9C10.656 13.9981 11.998 12.6934 12 11.0833Z" fill="white"/>
</svg>
