<?xml version="1.0" encoding="UTF-8"?>
<svg xmlns="http://www.w3.org/2000/svg" xmlns:xlink="http://www.w3.org/1999/xlink" width="30px" height="30px" viewBox="0 0 35 35" version="1.1">
<g id="surface1">
<path style=" stroke:none;fill-rule:nonzero;fill:rgb(0%,0%,0%);fill-opacity:1;" d="M 31.746094 2 L 17.378906 2 C 15.585938 2 14.125 3.460938 14.125 5.253906 L 14.125 10.378906 L 16.457031 10.378906 L 16.457031 5.253906 C 16.457031 4.746094 16.871094 4.332031 17.378906 4.332031 L 31.746094 4.332031 C 32.257812 4.332031 32.667969 4.746094 32.667969 5.253906 L 32.667969 19.621094 C 32.667969 20.132812 32.257812 20.542969 31.746094 20.542969 L 22.621094 20.542969 L 22.621094 22.875 L 31.746094 22.875 C 33.539062 22.875 35 21.414062 35 19.621094 L 35 5.253906 C 35 3.460938 33.539062 2 31.746094 2 Z M 31.746094 2 "/>
<path style=" stroke:none;fill-rule:nonzero;fill:rgb(0%,0%,0%);fill-opacity:1;" d="M 24.5625 14.574219 C 25.742188 14.574219 26.699219 13.617188 26.699219 12.4375 C 26.699219 11.257812 25.742188 10.300781 24.5625 10.300781 C 23.382812 10.300781 22.425781 11.257812 22.425781 12.4375 C 22.425781 13.617188 23.382812 14.574219 24.5625 14.574219 Z M 24.5625 14.574219 "/>
<path style=" stroke:none;fill-rule:nonzero;fill:rgb(0%,0%,0%);fill-opacity:1;" d="M 31.359375 7.777344 C 31.359375 6.597656 30.402344 5.640625 29.222656 5.640625 C 28.042969 5.640625 27.085938 6.597656 27.085938 7.777344 C 27.085938 8.957031 28.042969 9.914062 29.222656 9.914062 C 30.402344 9.914062 31.359375 8.957031 31.359375 7.777344 Z M 31.359375 7.777344 "/>
<path style=" stroke:none;fill-rule:nonzero;fill:rgb(0%,0%,0%);fill-opacity:1;" d="M 17.621094 12.125 L 3.253906 12.125 C 1.460938 12.125 0 13.585938 0 15.378906 L 0 29.746094 C 0 31.539062 1.460938 33 3.253906 33 L 17.621094 33 C 19.414062 33 20.875 31.539062 20.875 29.746094 L 20.875 15.378906 C 20.875 13.585938 19.414062 12.125 17.621094 12.125 Z M 18.542969 29.746094 C 18.542969 30.253906 18.128906 30.667969 17.621094 30.667969 L 3.253906 30.667969 C 2.742188 30.667969 2.332031 30.253906 2.332031 29.746094 L 2.332031 15.378906 C 2.332031 14.867188 2.742188 14.457031 3.253906 14.457031 L 17.621094 14.457031 C 18.128906 14.457031 18.542969 14.867188 18.542969 15.378906 Z M 18.542969 29.746094 "/>
<path style=" stroke:none;fill-rule:nonzero;fill:rgb(0%,0%,0%);fill-opacity:1;" d="M 10.4375 20.425781 C 9.257812 20.425781 8.300781 21.382812 8.300781 22.5625 C 8.300781 23.742188 9.257812 24.695312 10.4375 24.695312 C 11.617188 24.695312 12.574219 23.742188 12.574219 22.5625 C 12.574219 21.382812 11.617188 20.425781 10.4375 20.425781 Z M 10.4375 20.425781 "/>
</g>
</svg>
