<svg width="15" height="11" viewBox="0 0 15 11" xmlns="http://www.w3.org/2000/svg">
    <path d="M10.22 9.939c.386.499.849 1.061.849 1.061C13.909 10.907 15 9.008 15 9.008a17.822 17.822 0 0 0-1.85-7.638A6.286 6.286 0 0 0 9.54.005l-.179.21C11.545.899 12.56 1.88 12.56 1.88A10.342 10.342 0 0 0 8.695.622a10.662 10.662 0 0 0-2.593.027 1.242 1.242 0 0 0-.22.028 9.504 9.504 0 0 0-2.908.818c-.486.23-.764.38-.764.38S3.268.84 5.59.157L5.459 0a6.286 6.286 0 0 0-3.608 1.364A17.822 17.822 0 0 0 0 9.003s1.079 1.91 3.918 1.992c0 0 .476-.59.862-1.092C3.149 9.407 2.533 8.36 2.533 8.36s.13.093.36.224a.178.178 0 0 0 .05.038c.039.027.076.038.116.066.302.17.616.318.938.444.612.246 1.243.434 1.888.562 1.099.21 2.226.21 3.325 0a8.335 8.335 0 0 0 1.851-.562c.52-.2 1.015-.458 1.478-.772 0 0-.635 1.097-2.319 1.58zM5.462 8.114c-.714 0-1.3-.674-1.3-1.498a1.366 1.366 0 0 1 .6-1.302c.427-.278.97-.278 1.397 0 .427.278.66.785.6 1.302a1.45 1.45 0 0 1-.349 1.03 1.361 1.361 0 0 1-.954.47l.006-.002zm4.65 0c-.717.002-1.293-.66-1.293-1.495.077-.723.694-1.253 1.396-1.2.703.053 1.238.67 1.213 1.396-.026.726-.604 1.301-1.308 1.301l-.008-.002z" fill="#FFF" fill-rule="nonzero"/>
</svg>
