<svg width="18" height="17" viewBox="0 0 18 17" fill="none" xmlns="http://www.w3.org/2000/svg">
<path fill-rule="evenodd" clip-rule="evenodd" d="M8.1997 1.59122C8.31259 1.2393 8.64457 1 9.01991 1C9.39525 1 9.72723 1.2393 9.84011 1.59122L11.3213 6.06927H16.0991C16.4885 6.0548 16.8399 6.29713 16.9586 6.66192C17.0774 7.02672 16.9343 7.42461 16.6088 7.63503L12.7307 10.3986L14.2119 14.8845C14.3321 15.2352 14.2064 15.622 13.9015 15.8392C13.5967 16.0563 13.1836 16.0533 12.882 15.8317L8.99602 13.0369L5.11796 15.8083C4.81642 16.0298 4.40335 16.0328 4.0985 15.8157C3.79365 15.5985 3.66789 15.2117 3.78812 14.861L5.26926 10.3751L1.39121 7.61154C1.06567 7.40112 0.92263 7.00323 1.04137 6.63844C1.16011 6.27364 1.51154 6.03132 1.90085 6.04579H6.67874L8.1997 1.59122Z" stroke="#D5317C" stroke-width="1.17431" stroke-linecap="round" stroke-linejoin="round"/>
</svg>
