<svg width="18" height="18" viewBox="0 0 18 18" fill="none" xmlns="http://www.w3.org/2000/svg">
<path fill-rule="evenodd" clip-rule="evenodd" d="M2.90479 8.99999C2.90479 5.63369 5.63372 2.90475 9.00002 2.90475C12.3663 2.90475 15.0953 5.63369 15.0953 8.99999C15.0953 12.3663 12.3663 15.0952 9.00002 15.0952C5.63372 15.0952 2.90479 12.3663 2.90479 8.99999Z" stroke="white" stroke-width="1.17857" stroke-linecap="round" stroke-linejoin="round"/>
<path d="M15.0952 9H17" stroke="white" stroke-width="1.17857" stroke-linecap="round" stroke-linejoin="round"/>
<path d="M1 9H2.90476" stroke="white" stroke-width="1.17857" stroke-linecap="round" stroke-linejoin="round"/>
<path d="M9 2.90476V1" stroke="white" stroke-width="1.17857" stroke-linecap="round" stroke-linejoin="round"/>
<path d="M9 17V15.0952" stroke="white" stroke-width="1.17857" stroke-linecap="round" stroke-linejoin="round"/>
<path fill-rule="evenodd" clip-rule="evenodd" d="M5.95239 9.00001C5.95239 7.31686 7.31686 5.95239 9.00001 5.95239C10.6832 5.95239 12.0476 7.31686 12.0476 9.00001C12.0476 10.6832 10.6832 12.0476 9.00001 12.0476C7.31686 12.0476 5.95239 10.6832 5.95239 9.00001Z" stroke="white" stroke-width="1.17857" stroke-linecap="round" stroke-linejoin="round"/>
</svg>
