<svg width="18" height="15" viewBox="0 0 18 15" fill="none" xmlns="http://www.w3.org/2000/svg">
<path fill-rule="evenodd" clip-rule="evenodd" d="M1 2.625C1 1.72754 1.70996 1 2.58573 1C3.4615 1 4.17146 1.72754 4.17146 2.625C4.17146 3.52246 3.4615 4.25 2.58573 4.25C1.70996 4.25 1 3.52246 1 2.625Z" stroke="#BEBDC6" stroke-width="1.17431" stroke-linecap="round" stroke-linejoin="round"/>
<path fill-rule="evenodd" clip-rule="evenodd" d="M13.0357 3.51062C13.0357 2.38879 13.9231 1.47937 15.0179 1.47937C16.1126 1.47937 17 2.38879 17 3.51062C17 4.63245 16.1126 5.54187 15.0179 5.54187C13.9231 5.54187 13.0357 4.63245 13.0357 3.51062Z" stroke="#BEBDC6" stroke-width="1.17431" stroke-linecap="round" stroke-linejoin="round"/>
<path fill-rule="evenodd" clip-rule="evenodd" d="M4.96429 10.75C4.96429 8.95507 6.3842 7.5 8.13575 7.5C9.8873 7.5 11.3072 8.95507 11.3072 10.75C11.3072 12.5449 9.8873 14 8.13575 14C6.3842 14 4.96429 12.5449 4.96429 10.75Z" stroke="#BEBDC6" stroke-width="1.17431" stroke-linecap="round" stroke-linejoin="round"/>
<path d="M6.55006 7.5L3.63202 4.01758" stroke="#BEBDC6" stroke-width="1.17431" stroke-linecap="round" stroke-linejoin="round"/>
<path d="M10.3796 8.45062L13.6858 5.0625" stroke="#BEBDC6" stroke-width="1.17431" stroke-linecap="round" stroke-linejoin="round"/>
</svg>
