<svg width="15" height="14" viewBox="0 0 15 14" fill="none" xmlns="http://www.w3.org/2000/svg">
<path fill-rule="evenodd" clip-rule="evenodd" d="M12.6491 12.9998H2.37148C1.95169 12.9985 1.55548 12.8116 1.29553 12.4922C1.03559 12.1727 0.940346 11.7557 1.0369 11.3598L2.6948 4.69317C2.8393 4.10022 3.38016 3.67761 4.00874 3.6665L11.0118 3.6665C11.6404 3.67761 12.1813 4.10022 12.3258 4.69317L13.963 11.3598C14.0588 11.7524 13.9661 12.1658 13.7109 12.4844C13.4556 12.803 13.0653 12.9925 12.6491 12.9998V12.9998Z" stroke="white" stroke-width="0.923077" stroke-linecap="round" stroke-linejoin="round"/>
<path d="M4.4559 3.66667L5.07504 2.45333C5.54285 1.56602 6.48211 1.00548 7.5103 1V1C8.53848 1.00548 9.47774 1.56602 9.94556 2.45333L10.5647 3.66667" stroke="white" stroke-width="0.923077" stroke-linecap="round" stroke-linejoin="round"/>
</svg>
