<svg width="18" height="19" viewBox="0 0 18 19" fill="none" xmlns="http://www.w3.org/2000/svg">
<path fill-rule="evenodd" clip-rule="evenodd" d="M6.51109 9.5H11.4889C11.5871 9.5 11.6666 9.56343 11.6666 9.64167V18H6.33331V9.64167C6.33331 9.56343 6.41291 9.5 6.51109 9.5H6.51109Z" stroke="white" stroke-width="1.125" stroke-linecap="round" stroke-linejoin="round"/>
<path fill-rule="evenodd" clip-rule="evenodd" d="M6.33331 18H1.17776C1.07957 18 0.99998 17.9407 0.99998 17.8675L0.999979 13.4961C0.99998 13.4229 1.07957 13.3636 1.17776 13.3636H6.33331L6.33331 18V18Z" stroke="white" stroke-width="1.125" stroke-linecap="round" stroke-linejoin="round"/>
<path fill-rule="evenodd" clip-rule="evenodd" d="M16.8222 18H11.6667L11.6667 1H16.8222C16.9204 1 17 1.30445 17 1.68L17 17.32C17 17.6955 16.9204 18 16.8222 18L16.8222 18Z" stroke="white" stroke-width="1.125" stroke-linecap="round" stroke-linejoin="round"/>
</svg>
