<svg width="18" height="19" viewBox="0 0 18 19" fill="none" xmlns="http://www.w3.org/2000/svg">
<path d="M1 16.4559L1.66878 14.2325C2.77778 10.5808 5.69841 8.73569 8.61905 8.73569" stroke="white" stroke-width="1.125" stroke-linecap="round" stroke-linejoin="round"/>
<path fill-rule="evenodd" clip-rule="evenodd" d="M4.80951 4.86013C4.80951 2.72824 6.51509 1 8.61903 1C10.723 1 12.4286 2.72824 12.4286 4.86013C12.4286 6.99202 10.723 8.72026 8.61903 8.72026C6.51509 8.72026 4.80951 6.99202 4.80951 4.86013Z" stroke="white" stroke-width="1.125" stroke-linecap="round" stroke-linejoin="bevel"/>
<path fill-rule="evenodd" clip-rule="evenodd" d="M9.38098 14.1399C9.38098 12.008 11.0866 10.2798 13.1905 10.2798C15.2944 10.2798 17 12.008 17 14.1399C17 16.2718 15.2944 18 13.1905 18C11.0866 18 9.38098 16.2718 9.38098 14.1399Z" stroke="white" stroke-width="1.125" stroke-linecap="round" stroke-linejoin="round"/>
<path d="M11.5676 14.2557L12.6724 15.7457L15.1181 13.0359" stroke="white" stroke-width="1.125" stroke-linecap="round" stroke-linejoin="round"/>
</svg>
