<svg width="257" height="64" viewBox="0 0 257 64" fill="none" xmlns="http://www.w3.org/2000/svg">
<path d="M28.7613 44.3455L25.6109 54.7963L36.4471 51.7086L42.9864 37.0837L28.7613 44.3455Z" stroke="var(--logoColor)" stroke-width="4"/>
<path d="M17.3792 46.1478L19.2193 56.9069L8.84556 52.5088L4.15615 37.1902L17.3792 46.1478Z" stroke="var(--logoColor)" stroke-width="4"/>
<path d="M15.2883 28.4578L22.4211 42.1874L30.3744 28.3374L22.5567 7.01776L15.2883 28.4578Z" stroke="var(--logoColor)" stroke-width="4"/>
<path d="M79.8476 36.184C79.8476 40.216 78.6316 43.448 76.1996 45.88C73.7996 48.312 70.5996 49.528 66.5996 49.528C63.5276 49.528 60.8716 48.728 58.6316 47.128C56.4236 45.528 54.8236 43.288 53.8316 40.408L58.4396 38.584C59.2396 40.696 60.3276 42.28 61.7036 43.336C63.0796 44.392 64.7276 44.92 66.6476 44.92C69.0796 44.92 71.0476 44.12 72.5516 42.52C74.0556 40.888 74.8076 38.744 74.8076 36.088V15.4H79.8476V36.184ZM114.033 34.648C114.033 36.92 113.697 38.984 113.025 40.84C112.353 42.664 111.393 44.216 110.145 45.496C108.929 46.776 107.425 47.768 105.633 48.472C103.873 49.176 101.905 49.528 99.7286 49.528C95.3766 49.528 91.9046 48.184 89.3126 45.496C86.7526 42.808 85.4726 39.192 85.4726 34.648V15.4H90.5126V34.648C90.5126 37.752 91.3446 40.232 93.0086 42.088C94.7046 43.944 96.9446 44.872 99.7286 44.872C102.545 44.872 104.785 43.944 106.449 42.088C108.145 40.232 108.993 37.752 108.993 34.648V15.4H114.033V34.648ZM120.221 15.4H125.165L143.885 40.312V15.4H148.637V49H144.221L124.973 23.272V49H120.221V15.4ZM188.157 32.632C188.157 35.032 187.725 37.272 186.861 39.352C186.029 41.4 184.877 43.176 183.405 44.68C181.933 46.184 180.173 47.368 178.125 48.232C176.109 49.096 173.933 49.528 171.597 49.528C169.165 49.528 166.877 49.08 164.733 48.184C162.589 47.288 160.733 46.072 159.165 44.536C157.597 42.968 156.349 41.128 155.421 39.016C154.525 36.872 154.077 34.6 154.077 32.2C154.077 29.8 154.525 27.544 155.421 25.432C156.349 23.288 157.581 21.448 159.117 19.912C160.685 18.344 162.541 17.112 164.685 16.216C166.829 15.32 169.117 14.872 171.549 14.872C174.205 14.872 176.717 15.384 179.085 16.408C181.453 17.432 183.453 18.856 185.085 20.68L181.629 24.04C180.381 22.6 178.861 21.496 177.069 20.728C175.309 19.928 173.469 19.528 171.549 19.528C169.821 19.528 168.189 19.848 166.653 20.488C165.149 21.128 163.837 22.024 162.717 23.176C161.629 24.296 160.765 25.64 160.125 27.208C159.517 28.744 159.213 30.408 159.213 32.2C159.213 33.992 159.533 35.672 160.173 37.24C160.813 38.776 161.677 40.12 162.765 41.272C163.885 42.392 165.197 43.288 166.701 43.96C168.237 44.6 169.885 44.92 171.645 44.92C174.621 44.92 177.149 44.024 179.229 42.232C181.341 40.408 182.557 38.104 182.877 35.32H171.693V30.904H188.157V32.632ZM193.439 49V15.4H198.479V44.536H217.823V49H193.439ZM222.924 49V15.4H247.692V19.816H227.964V29.896H240.924V34.216H227.964V44.584H247.884V49H222.924Z" fill="var(--fontColor)" stroke="#000"/>
</svg>
