<?xml version="1.0" encoding="UTF-8"?>
<svg width="26" height="25" viewBox="0 0 25 25" version="1.1" xmlns="http://www.w3.org/2000/svg" xmlns:xlink="http://www.w3.org/1999/xlink">
    <g transform="translate(2 2)" stroke="none" stroke-width="1" fill="none" fill-rule="evenodd">
        <g id="sun-copy" transform="translate(0.000000, 0.000000)" fill-rule="nonzero" stroke="#000000" stroke-width="2.5">
            <path d="M11.397,0.877 L11.3890887,0.891344695 C10.47752,2.42806528 9.95472466,4.22039199 9.95472466,6.13418182 C9.95472466,8.9884417 11.1174451,11.5727014 12.9979609,13.4432569 C14.8767904,15.3121349 17.4722605,16.4684545 20.3393664,16.4684545 C20.5684732,16.4684545 20.7958445,16.4610604 21.0211471,16.4466182 C20.2299532,17.9393686 19.0917723,19.2218782 17.7137433,20.1884824 C15.9740796,21.4087515 13.8517025,22.125 11.5612356,22.125 C8.60977935,22.125 5.93753013,20.9353731 4.00328085,19.0113688 C2.07071786,17.0890419 0.875,14.4334835 0.875,11.5 C0.875,8.56651654 2.07071786,5.91095809 4.00328085,3.98863117 C5.93753013,2.06462688 8.60977935,0.875 11.5612356,0.875 L11.397,0.877 Z" id="Oval-2"></path>
        </g>
    </g>
</svg>