<svg width="12" height="12" viewBox="0 0 12 12" fill="none" xmlns="http://www.w3.org/2000/svg">
<path fill-rule="evenodd" clip-rule="evenodd" d="M0.375 0.375C0.582107 0.167893 0.917893 0.167893 1.125 0.375L11.625 10.875C11.8321 11.0821 11.8321 11.4179 11.625 11.625C11.4179 11.8321 11.0821 11.8321 10.875 11.625L0.375 1.125C0.167893 0.917893 0.167893 0.582107 0.375 0.375Z" fill="#686873"/>
<path fill-rule="evenodd" clip-rule="evenodd" d="M0.375 11.625C0.167893 11.4179 0.167893 11.0821 0.375 10.875L10.875 0.375C11.0821 0.167893 11.4179 0.167893 11.625 0.375C11.8321 0.582107 11.8321 0.917894 11.625 1.125L1.125 11.625C0.917893 11.8321 0.582107 11.8321 0.375 11.625Z" fill="#686873"/>
</svg>
