<svg width="16" height="16" viewBox="0 0 16 16" xmlns="http://www.w3.org/2000/svg">
    <path d="M14.678 15.773a.774.774 0 1 0 1.095-1.095l-1.095 1.095zm-1.465-8.392a5.832 5.832 0 0 1-5.832 5.832v1.548a7.38 7.38 0 0 0 7.38-7.38h-1.548zM7.38 13.213A5.832 5.832 0 0 1 1.548 7.38H0a7.38 7.38 0 0 0 7.38 7.38v-1.548zM1.548 7.38a5.832 5.832 0 0 1 5.833-5.833V0A7.38 7.38 0 0 0 0 7.38h1.548zm5.833-5.833a5.832 5.832 0 0 1 5.832 5.833h1.548A7.38 7.38 0 0 0 7.381 0v1.548zm4.2 11.128 3.097 3.097 1.095-1.095-3.097-3.096-1.094 1.094z" fill="var(--primaryColor)" fill-rule="nonzero"/>
</svg>
