<svg width="15" height="12" viewBox="0 0 15 12" xmlns="http://www.w3.org/2000/svg">
    <path d="M15 1.42a6.199 6.199 0 0 1-1.768.477A3.044 3.044 0 0 0 14.586.221a6.22 6.22 0 0 1-1.955.736A3.096 3.096 0 0 0 10.385 0c-1.7 0-3.077 1.356-3.077 3.03 0 .237.027.468.08.69A8.784 8.784 0 0 1 1.044.555a2.978 2.978 0 0 0-.416 1.523c0 1.05.543 1.978 1.369 2.521A3.106 3.106 0 0 1 .603 4.22v.038c0 1.468 1.06 2.692 2.468 2.971a3.14 3.14 0 0 1-1.39.052 3.075 3.075 0 0 0 2.875 2.103 6.236 6.236 0 0 1-3.822 1.297c-.248 0-.493-.014-.734-.042A8.809 8.809 0 0 0 4.717 12c5.661 0 8.756-4.616 8.756-8.62 0-.13-.002-.262-.008-.392A6.18 6.18 0 0 0 15 1.42z" fill="#FFF" fill-rule="nonzero"/>
</svg>
