<svg width="100%" height="100%" viewBox="0 0 557 583" fill="none" xmlns="http://www.w3.org/2000/svg">
<path d="M228.954 81.5198C254.912 50.9511 302.088 50.9511 328.046 81.5198L346.961 103.794C360.499 119.737 378.92 130.766 399.366 135.171L430.517 141.883C467.992 149.956 490.376 188.54 478.785 225.08L466.827 262.773C460.897 281.465 460.897 301.535 466.827 320.227L478.785 357.92C490.376 394.46 467.992 433.044 430.517 441.117L399.366 447.829C378.92 452.234 360.499 463.263 346.961 479.206L328.046 501.48C302.088 532.049 254.912 532.049 228.954 501.48L210.039 479.206C196.501 463.263 178.08 452.234 157.634 447.829L126.483 441.117C89.0081 433.044 66.6236 394.46 78.2155 357.92L90.1733 320.227C96.1033 301.535 96.1033 281.465 90.1733 262.773L78.2155 225.08C66.6236 188.54 89.0081 149.956 126.483 141.883L157.634 135.171C178.08 130.766 196.501 119.737 210.039 103.794L228.954 81.5198Z" fill="var(--logoColor)" stroke="var(--logoColor)" stroke-width="30"/>
<line x1="173.142" y1="275.858" x2="250.924" y2="353.64" stroke="white" stroke-width="40"/>
<line x1="382.564" y1="229.142" x2="241.142" y2="370.563" stroke="white" stroke-width="40"/>
</svg>
